<svg xmlns="http://www.w3.org/2000/svg" width="91" height="91" viewBox="0 0 91 91">
  <g id="AdobeXD-icon" transform="translate(-18255 -2315)">
    <rect id="Rectangle_106" data-name="Rectangle 106" width="91" height="91" transform="translate(18255 2315)" fill="#fff" opacity="0"/>
    <g id="adobe-xd-1" transform="translate(18274.451 2335.105)">
      <path id="Path_76" data-name="Path 76" d="M43.253,51.247H9.307A9.3,9.3,0,0,1,0,41.939V9.307A9.3,9.3,0,0,1,9.307,0H43.253a9.3,9.3,0,0,1,9.307,9.307V41.939A9.3,9.3,0,0,1,43.253,51.247Z" fill="#ff26be"/>
      <path id="Path_77" data-name="Path 77" d="M144.43,151.065H112.149a7.963,7.963,0,0,1-7.949-7.949V112.149a7.963,7.963,0,0,1,7.949-7.949h32.26a7.948,7.948,0,0,1,7.949,7.949v30.946a7.936,7.936,0,0,1-7.928,7.97Z" transform="translate(-102.009 -102.009)" fill="#2e001f"/>
      <path id="Path_78" data-name="Path 78" d="M477.66,604.317l6.133,11.782c.109.174.044.351-.132.351h-3.812a.429.429,0,0,1-.46-.284c-1.4-2.891-2.826-5.782-4.293-8.891h-.044c-1.314,2.935-2.76,6.023-4.161,8.914a.423.423,0,0,1-.4.242h-3.61c-.219,0-.242-.174-.13-.307l6-11.433-5.8-11.563a.177.177,0,0,1,.13-.307h3.768c.219,0,.307.044.393.242,1.379,2.891,2.781,5.87,4.1,8.782h.044c1.27-2.891,2.672-5.891,4.03-8.761.109-.174.175-.284.4-.284h3.526c.174,0,.242.132.133.307Zm7.207,3.57c0-5.1,3.4-9.089,8.782-9.089a9.648,9.648,0,0,1,1.14.044v-5.8a.218.218,0,0,1,.219-.219h3.461c.174,0,.219.065.219.174V613.1a15.634,15.634,0,0,0,.109,2.147c0,.133-.044.174-.174.242a13.037,13.037,0,0,1-5.607,1.27c-4.754.019-8.149-2.914-8.147-8.872Zm9.919-5.605a3.292,3.292,0,0,0-1.27-.219c-2.76,0-4.686,2.123-4.686,5.651,0,4.03,1.972,5.651,4.447,5.651a4.106,4.106,0,0,0,1.512-.242V602.282Z" transform="translate(-456.878 -580.337)" fill="#ffd9f2"/>
    </g>
  </g>
</svg>
