<svg xmlns="http://www.w3.org/2000/svg" width="91" height="91" viewBox="0 0 91 91">
  <g id="AdobeAI-icon" transform="translate(-18479 -2315)">
    <rect id="Rectangle_112" data-name="Rectangle 112" width="91" height="91" transform="translate(18479 2315)" fill="#fff" opacity="0"/>
    <g id="Layer_2_1_" transform="translate(18496.367 2333.061)">
      <g id="Surfaces" transform="translate(0 0)">
        <g id="Drawing_Surface">
          <g id="Outline_no_shadow">
            <path id="Path_73" data-name="Path 73" d="M10.01,0H46.518a10,10,0,0,1,10.01,10.01V45.1a10,10,0,0,1-10.01,10.01H10.01A10,10,0,0,1,0,45.1V10.01A10,10,0,0,1,10.01,0Z" transform="translate(0 0)" fill="#300"/>
          </g>
        </g>
      </g>
      <g id="Outlined_Mnemonics_Logos" transform="translate(11.68 12.224)">
        <g id="Ai">
          <path id="Path_74" data-name="Path 74" d="M65.3,78.86H56.541L54.751,84.4a.412.412,0,0,1-.448.33H49.875c-.259,0-.33-.141-.259-.424L57.2,62.467c.071-.236.141-.495.236-.777a8.227,8.227,0,0,0,.141-1.531.233.233,0,0,1,.188-.259h6.1c.188,0,.283.071.306.188l8.6,24.26c.071.259,0,.377-.236.377H67.611a.356.356,0,0,1-.377-.259Zm-7.4-4.781H63.89c-.141-.495-.33-1.083-.542-1.7-.212-.636-.424-1.319-.636-2.026-.236-.73-.448-1.437-.683-2.167s-.448-1.413-.636-2.1c-.188-.659-.353-1.272-.518-1.837h-.047a28.919,28.919,0,0,1-.8,3.038c-.353,1.131-.707,2.308-1.083,3.486-.33,1.2-.683,2.308-1.036,3.3Z" transform="translate(-49.59 -58.016)" fill="#ff9a00"/>
          <path id="Path_75" data-name="Path 75" d="M160.393,57.812a2.915,2.915,0,0,1-2.1-.824,3.06,3.06,0,0,1-.8-2.167,2.771,2.771,0,0,1,.848-2.1,3.016,3.016,0,0,1,2.1-.824,2.82,2.82,0,0,1,2.143.824,3.238,3.238,0,0,1-.047,4.263A2.77,2.77,0,0,1,160.393,57.812Zm-2.638,20.444V60.12c0-.236.094-.33.306-.33h4.664c.212,0,.306.118.306.33V78.256c0,.259-.094.377-.306.377h-4.616A.33.33,0,0,1,157.755,78.256Z" transform="translate(-132.079 -51.9)" fill="#ff9a00"/>
        </g>
      </g>
    </g>
  </g>
</svg>
