<svg xmlns="http://www.w3.org/2000/svg" width="91" height="91" viewBox="0 0 91 91">
  <g id="AWS-icon" transform="translate(-18479 -1660)">
    <rect id="Rectangle_103" data-name="Rectangle 103" width="91" height="91" transform="translate(18479 1660)" fill="#fff" opacity="0"/>
    <g id="AWS-icon-2" data-name="AWS-icon" transform="translate(18487.336 1682.924)">
      <g id="g1865" transform="translate(0 0)">
        <g id="g1863" transform="translate(0 27.768)">
          <path id="path1859" d="M69.063,125.231c-8.157,6.025-20.008,9.223-30.2,9.223A54.631,54.631,0,0,1,2,120.4c-.769-.694-.074-1.636.843-1.091A74.351,74.351,0,0,0,39.733,129.1a73.619,73.619,0,0,0,28.14-5.752C69.237,122.727,70.4,124.24,69.063,125.231Z" transform="translate(-1.668 -117.668)" fill="#f90" fill-rule="evenodd"/>
          <path id="path1861" d="M256.2,116.888c-1.041-1.339-6.892-.645-9.545-.322-.793.1-.917-.6-.2-1.116,4.661-3.273,12.322-2.331,13.215-1.24.893,1.116-.248,8.777-4.612,12.446-.669.57-1.314.273-1.017-.471C255.039,123.731,257.246,118.2,256.2,116.888Z" transform="translate(-185.413 -113.192)" fill="#f90" fill-rule="evenodd"/>
        </g>
        <path id="path1857" d="M32.025,17.29A7.5,7.5,0,0,0,32.3,19.5a13.271,13.271,0,0,0,.793,1.785,1.078,1.078,0,0,1,.174.57.982.982,0,0,1-.471.744l-1.562,1.041a1.189,1.189,0,0,1-.645.223,1.141,1.141,0,0,1-.744-.347,7.67,7.67,0,0,1-.893-1.165c-.248-.421-.5-.893-.769-1.463a9.159,9.159,0,0,1-7.289,3.421,6.793,6.793,0,0,1-4.959-1.785,6.369,6.369,0,0,1-1.835-4.76,6.382,6.382,0,0,1,2.256-5.107A9.019,9.019,0,0,1,22.43,10.72a19.63,19.63,0,0,1,2.628.2c.917.124,1.859.322,2.851.545V9.654c0-1.884-.4-3.2-1.165-3.967-.793-.769-2.132-1.14-4.041-1.14a11.28,11.28,0,0,0-2.678.322,19.755,19.755,0,0,0-2.678.843,7.114,7.114,0,0,1-.868.322,1.521,1.521,0,0,1-.4.074c-.347,0-.521-.248-.521-.769V4.125a1.569,1.569,0,0,1,.174-.868,1.856,1.856,0,0,1,.694-.521,14.274,14.274,0,0,1,3.124-1.116,15.031,15.031,0,0,1,3.868-.471c2.95,0,5.107.669,6.5,2.008,1.364,1.339,2.058,3.372,2.058,6.1V17.29ZM21.959,21.058a8.035,8.035,0,0,0,2.554-.446,5.525,5.525,0,0,0,2.355-1.587,3.935,3.935,0,0,0,.843-1.587,8.9,8.9,0,0,0,.248-2.157V14.24a20.7,20.7,0,0,0-2.281-.421,18.682,18.682,0,0,0-2.331-.149,5.716,5.716,0,0,0-3.694.992,3.456,3.456,0,0,0-1.215,2.851,3.2,3.2,0,0,0,3.521,3.545Zm19.909,2.678a1.384,1.384,0,0,1-.942-.248,2.021,2.021,0,0,1-.521-.967L34.579,3.356a4.343,4.343,0,0,1-.223-.992.544.544,0,0,1,.6-.62h2.43a1.374,1.374,0,0,1,.967.248,2.028,2.028,0,0,1,.5.967l4.165,16.413L46.876,2.959a1.739,1.739,0,0,1,.471-.967,1.705,1.705,0,0,1,.992-.248h1.983a1.492,1.492,0,0,1,.992.248,1.671,1.671,0,0,1,.471.967L55.7,19.571,59.992,2.959a2.126,2.126,0,0,1,.5-.967,1.618,1.618,0,0,1,.967-.248H63.76a.551.551,0,0,1,.62.62,2.473,2.473,0,0,1-.05.4,3.528,3.528,0,0,1-.174.62L58.182,22.546a1.9,1.9,0,0,1-.521.967,1.586,1.586,0,0,1-.942.248H54.587a1.492,1.492,0,0,1-.992-.248,1.758,1.758,0,0,1-.471-.992L49.281,6.53,45.463,22.5a1.935,1.935,0,0,1-.471.992,1.537,1.537,0,0,1-.992.248Zm31.859.669a16.407,16.407,0,0,1-3.818-.446,11.279,11.279,0,0,1-2.851-.992,1.786,1.786,0,0,1-.769-.694,1.75,1.75,0,0,1-.149-.694V20.315c0-.521.2-.769.57-.769a1.4,1.4,0,0,1,.446.074c.149.05.372.149.62.248a13.486,13.486,0,0,0,2.727.868,14.889,14.889,0,0,0,2.95.3,6.689,6.689,0,0,0,3.62-.818,2.67,2.67,0,0,0,1.289-2.355,2.414,2.414,0,0,0-.669-1.736,6.221,6.221,0,0,0-2.5-1.289L71.595,13.72a7.562,7.562,0,0,1-3.967-2.529A5.907,5.907,0,0,1,66.388,7.6a5.518,5.518,0,0,1,.669-2.752,6.375,6.375,0,0,1,1.785-2.033,7.869,7.869,0,0,1,2.578-1.289A10.806,10.806,0,0,1,74.545,1.1a12.446,12.446,0,0,1,1.661.1c.57.074,1.091.174,1.612.273.5.124.967.248,1.413.4a5.411,5.411,0,0,1,1.041.446,2.144,2.144,0,0,1,.744.62,1.336,1.336,0,0,1,.223.818V4.918c0,.521-.2.793-.57.793a2.579,2.579,0,0,1-.942-.3,11.342,11.342,0,0,0-4.76-.967,6.4,6.4,0,0,0-3.3.694A2.394,2.394,0,0,0,70.5,7.348a2.341,2.341,0,0,0,.744,1.76,7.406,7.406,0,0,0,2.727,1.364L77.5,11.587a7.541,7.541,0,0,1,3.843,2.38,5.61,5.61,0,0,1,1.14,3.471,6.374,6.374,0,0,1-.645,2.876,6.668,6.668,0,0,1-1.81,2.182,7.992,7.992,0,0,1-2.752,1.388,11.789,11.789,0,0,1-3.545.521Z" transform="translate(-11.075 -1.1)" fill="#252f3e"/>
      </g>
    </g>
  </g>
</svg>
