<svg xmlns="http://www.w3.org/2000/svg" width="125.009" height="95.999" viewBox="0 0 125.009 95.999">
  <g id="Group_340" data-name="Group 340" transform="translate(-680.001 -1047)">
    <path id="Path_208" data-name="Path 208" d="M395.274,286.565l-.273-.083L293.242,255.443l.28-.14,69.856-34.884.055.114ZM293.913,255.386,394.8,286.16l-31.539-65.4Z" transform="translate(398.135 837.345)" fill="#e6e6e6"/>
    <rect id="Rectangle_143" data-name="Rectangle 143" width="25.338" height="20.048" transform="translate(779.171 1108.615)" fill="#fff"/>
    <path id="Path_209" data-name="Path 209" d="M843.326,552.888H816.987V531.84h26.339Zm-25.338-1h24.339V532.84H817.987Z" transform="translate(-38.316 575.91)" fill="#e6e6e6"/>
    <rect id="Rectangle_144" data-name="Rectangle 144" width="25.338" height="20.048" transform="translate(680.5 1082.116)" fill="#fff"/>
    <path id="Path_210" data-name="Path 210" d="M251.326,389.888H224.987V368.84h26.339Zm-25.339-1h24.338V369.84H225.987Z" transform="translate(455.014 712.777)" fill="#e6e6e6"/>
    <rect id="Rectangle_145" data-name="Rectangle 145" width="25.338" height="20.048" transform="translate(750.67 1047.5)" fill="#fff"/>
    <path id="Path_211" data-name="Path 211" d="M672.326,176.888H645.987V155.84h26.339Zm-25.338-1h24.339V156.84H646.987Z" transform="translate(104.183 891.16)" fill="#e6e6e6"/>
    <path id="Path_212" data-name="Path 212" d="M480.541,46.292l6.491,2.871-6.491,2.746Z" transform="translate(279.553 1008.424)" fill="#15ceff"/>
    <rect id="Rectangle_146" data-name="Rectangle 146" width="10.655" height="0.972" transform="translate(687.843 1088.976)" fill="#15ceff"/>
    <rect id="Rectangle_147" data-name="Rectangle 147" width="10.655" height="0.972" transform="translate(687.843 1091.639)" fill="#15ceff"/>
    <rect id="Rectangle_148" data-name="Rectangle 148" width="10.655" height="0.972" transform="translate(687.843 1094.303)" fill="#15ceff"/>
    <circle id="Ellipse_21" data-name="Ellipse 21" cx="1.373" cy="1.373" r="1.373" transform="translate(786.224 1117.374)" fill="#15ceff"/>
    <circle id="Ellipse_22" data-name="Ellipse 22" cx="1.373" cy="1.373" r="1.373" transform="translate(790.467 1117.374)" fill="#15ceff"/>
    <circle id="Ellipse_23" data-name="Ellipse 23" cx="1.373" cy="1.373" r="1.373" transform="translate(794.712 1117.374)" fill="#15ceff"/>
    <path id="Path_213" data-name="Path 213" d="M498.365,477.663a1.958,1.958,0,0,0-1.1-2.793l-.323-4.463-2.76-.465.544,6.3a1.969,1.969,0,0,0,3.641,1.425Z" transform="translate(230.688 628.286)" fill="#a0616a"/>
    <path id="Path_214" data-name="Path 214" d="M344.369,523.225h2.56l1.218-9.875h-3.779Z" transform="translate(393.03 617.292)" fill="#a0616a"/>
    <path id="Path_215" data-name="Path 215" d="M565.44,723.423h5.042a3.213,3.213,0,0,1,3.213,3.213v.1H565.44Z" transform="translate(171.305 416.259)" fill="#2f2e41"/>
    <path id="Path_216" data-name="Path 216" d="M294.252,523.225h2.56l1.218-9.875h-3.779Z" transform="translate(434.792 617.292)" fill="#a0616a"/>
    <path id="Path_217" data-name="Path 217" d="M515.323,723.423h5.042a3.213,3.213,0,0,1,3.213,3.213v.1h-8.255Z" transform="translate(213.069 416.259)" fill="#2f2e41"/>
    <path id="Path_218" data-name="Path 218" d="M283.961,313l-1.253,7.076,1.671,32.995h3.76l2.076-16.229.847-12.38,1.336,28.609,3.885.28,2.247-16.4L299.1,320.6l-.6-7.6Z" transform="translate(444.413 784.252)" fill="#2f2e41"/>
    <path id="Path_219" data-name="Path 219" d="M531.267,339.017l5.638,1.044,1.566,20.152s-6.891,3.132-9.4.418S531.267,339.017,531.267,339.017Z" transform="translate(202.223 737.736)" fill="#ccc"/>
    <path id="Path_220" data-name="Path 220" d="M581.4,348.309l-5.325-3.028-.731,13.887s-.209,16.289,3.968,16.289l3.132-1.044-1.671-13.574Z" transform="translate(163.053 732.401)" fill="#2f2e41"/>
    <path id="Path_221" data-name="Path 221" d="M506.651,341.836l6.369-2.819.731,12.216s2.088,16.289-4.594,16.915a2.917,2.917,0,0,1-2.715-1.253l1.253-12.112Z" transform="translate(220.47 737.664)" fill="#2f2e41"/>
    <path id="Path_222" data-name="Path 222" d="M490.668,356.558l-1.253-.627s-.627,0-.835.418-2.821,12.53-2.821,12.53l1.6,11.309,3.1-1.494-.645-9.449Z" transform="translate(237.706 723.551)" fill="#2f2e41"/>
    <path id="Path_223" data-name="Path 223" d="M596.443,484.722a1.958,1.958,0,0,1,.879-2.871l-.031-4.475,2.715-.682-.045,6.32a1.969,1.969,0,0,1-3.517,1.708Z" transform="translate(145.734 622.632)" fill="#a0616a"/>
    <path id="Path_224" data-name="Path 224" d="M595.817,363.657l2.3-.209s.835.3,1.044,2.865.209,9,.209,9l.626,11.526h-3.55L595.4,375.143Z" transform="translate(146.339 717.265)" fill="#2f2e41"/>
    <circle id="Ellipse_24" data-name="Ellipse 24" cx="4.906" cy="4.906" r="4.906" transform="translate(732.098 1065.567)" fill="#a0616a"/>
    <path id="Path_225" data-name="Path 225" d="M537.373,269.861,537.3,268.7c-.016-.272.068-.65.339-.63.231.017.745.107.813.034.255-.272.782.006,1.057-.246.115-.105.167-.291.317-.334a.43.43,0,0,1,.3.068,1.886,1.886,0,0,0,.781.239.772.772,0,0,0,.7-.352.4.4,0,0,1,.105-.152.3.3,0,0,1,.19-.03l.846.055a3.142,3.142,0,0,0-.928-2.451,5.2,5.2,0,0,0-1.4-.906q-.86-.415-1.753-.753a5.093,5.093,0,0,0-2.032-.432,2.035,2.035,0,0,0-1.732.994,1.221,1.221,0,0,1-.548-.494.449.449,0,0,0,.166.669l-.766-.295c-.15.239.3.526.179.782a.423.423,0,0,1-.158.156,3.171,3.171,0,0,0-.867.828,3.783,3.783,0,0,0-.489,1.6,4.643,4.643,0,0,0,.6,3.6c.09.11,1.362,1.964,1.492,2.02.441.189.058-.407.412-.084.278.254.005-.878.379-.694a.822.822,0,0,0,.884-.139c.115-.12-.033-.627-.2-1.086a.569.569,0,0,1,.551-.766A2.47,2.47,0,0,0,537.373,269.861Z" transform="translate(198.901 801.637)" fill="#2f2e41"/>
  </g>
</svg>
