<svg xmlns="http://www.w3.org/2000/svg" width="122.034" height="95" viewBox="0 0 122.034 95">
  <g id="Group_337" data-name="Group 337" transform="translate(-709 -172)">
    <circle id="Ellipse_3" data-name="Ellipse 3" cx="17.705" cy="17.705" r="17.705" transform="translate(745.339 191.471)" fill="#15ceff"/>
    <path id="Path_115" data-name="Path 115" d="M428.8,255.785a17.841,17.841,0,1,1,17.841-17.841A17.861,17.861,0,0,1,428.8,255.785Zm0-35.409a17.568,17.568,0,1,0,17.568,17.568A17.568,17.568,0,0,0,428.8,220.376Z" transform="translate(336.438 -31.897)" fill="#3f3d56"/>
    <path id="Path_116" data-name="Path 116" d="M233.7,161.016H127.961V100.957H233.7Zm-105.482-.272H233.443V101.229H128.222Z" transform="translate(582.99 71.043)" fill="#3f3d56"/>
    <rect id="Rectangle_117" data-name="Rectangle 117" width="25" height="2.353" transform="translate(714.294 177)" fill="#f2f2f2"/>
    <rect id="Rectangle_118" data-name="Rectangle 118" width="24.412" height="2.353" transform="translate(748.844 177)" fill="#f2f2f2"/>
    <rect id="Rectangle_119" data-name="Rectangle 119" width="24.412" height="2.353" transform="translate(783.357 177)" fill="#f2f2f2"/>
    <path id="Path_117" data-name="Path 117" d="M189.475,128.681H164.961v-2.724h24.514Zm-24.242-.272H189.2v-2.179H165.233Z" transform="translate(551.029 49.448)" fill="#3f3d56"/>
    <path id="Path_118" data-name="Path 118" d="M456.475,128.681H431.961v-2.724h24.514Zm-24.242-.272H456.2v-2.179H432.233Z" transform="translate(318.396 49.448)" fill="#3f3d56"/>
    <path id="Path_119" data-name="Path 119" d="M723.475,128.681H698.961v-2.724h24.514Zm-24.242-.272H723.2v-2.179H699.233Z" transform="translate(86.084 49.448)" fill="#3f3d56"/>
    <path id="Path_120" data-name="Path 120" d="M393.5,378.115l8.58-16.615,2.315,1.362L394.59,378.8Z" transform="translate(368.785 -140.313)" fill="#3f3d56"/>
    <path id="Path_121" data-name="Path 121" d="M481.506,584.11s1.581,1.242,1.761-1.416a3.049,3.049,0,0,1,1.109-2.191,2.427,2.427,0,0,1,2.986-.206,2.571,2.571,0,0,1,1.291,2.523,3.877,3.877,0,0,1-1.938,3.031,4.144,4.144,0,0,1-5.208-.515S480.28,583.974,481.506,584.11Z" transform="translate(276.086 -342.706)" fill="#15ceff"/>
    <circle id="Ellipse_4" data-name="Ellipse 4" cx="3.305" cy="3.305" r="3.305" transform="translate(768.99 195.475)" fill="#ffb8b8"/>
    <path id="Path_122" data-name="Path 122" d="M583.586,303.642s.87,4.522.522,5.392,4.87-.348,4.87-.348-1.044-4.522-.87-5.566S583.586,303.642,583.586,303.642Z" transform="translate(186.934 -103.3)" fill="#ffb8b8"/>
    <path id="Path_123" data-name="Path 123" d="M413.479,323.215l.348,4.7,1.726,7.375.535,2.017.87-3.131-.87-7.131-.3-3.211Z" transform="translate(351.558 -107.236)" fill="#ffb8b8"/>
    <path id="Path_124" data-name="Path 124" d="M656.787,419.063v4.87s-.522,6.262-1.565,7.827-1.391-6.262-1.391-6.262l.818-5.74Z" transform="translate(125.941 -203.778)" fill="#ffb8b8"/>
    <path id="Path_125" data-name="Path 125" d="M559.06,526.454s-.87,1.044-.174,11.654-.348,18.263,1.913,18.263c0,0-.7,2.261,1.218,2.435s2.783.348,2.957-.174.522-2.957,0-2.957c0,0,0,.7.348-2.087s.348-16,1.218-17.741l2.783,6.436a17.115,17.115,0,0,0,.522,4.348c.522,1.391,1.392,9.392,1.392,9.392l-.174,1.218s4.174.7,4.348,0a4.176,4.176,0,0,0,0-2.087c-.174-.348-.174-.348.174-1.044a2.107,2.107,0,0,0,.174-1.739c-.174-.522-.174-11.828-.174-11.828s-.348-13.741-2.435-14.437S559.06,526.454,559.06,526.454Z" transform="translate(208.38 -296.071)" fill="#2f2e41"/>
    <path id="Path_126" data-name="Path 126" d="M558.255,757.513l-1.391,2.435s-2.174-.783-1.739,1.218a34.755,34.755,0,0,0,6.349-.087s.87.348,1.044-.174-.435-2.348-.957-2.348A25.214,25.214,0,0,1,558.255,757.513Z" transform="translate(211.679 -496.169)" fill="#2f2e41"/>
    <path id="Path_127" data-name="Path 127" d="M646.294,748.3s-1.391,3.131-.87,3.3,5.218.87,5.566,1.044,2.087.348,2.261-.7a1.279,1.279,0,0,0-.87-1.391,3.283,3.283,0,0,1-2.435-2.087C649.425,746.735,646.294,748.3,646.294,748.3Z" transform="translate(133.231 -487.653)" fill="#2f2e41"/>
    <path id="Path_128" data-name="Path 128" d="M555.126,339.981s-4.7-.87-5.74,0-5.392,2.609-5.392,3.479,2.261,9.393,2.261,9.393-1.217,12.871,0,13.219,3.3-.7,5.74.522,9.393-1.044,9.393-1.044-2.609-11.132-1.913-13.219,1.218-9.219,1.218-9.219S557.735,339.981,555.126,339.981Z" transform="translate(221.093 -135.129)" fill="#8985a8"/>
    <path id="Path_129" data-name="Path 129" d="M533.719,364.145l-1.218.348s-2.609,8.175-1.565,8.523a37.319,37.319,0,0,0,4.348,1.044C535.633,374.059,533.719,364.145,533.719,364.145Z" transform="translate(232.919 -156.332)" fill="#8985a8"/>
    <path id="Path_130" data-name="Path 130" d="M646.167,357.759l2.783,1.044s3.653,6.783,2.783,7.653-4.7,1.739-4.7,1.739Z" transform="translate(132.538 -150.815)" fill="#8985a8"/>
    <path id="Path_131" data-name="Path 131" d="M571.738,267.57a1.867,1.867,0,0,0-.827.036,2.156,2.156,0,0,0-.588.385,6.881,6.881,0,0,1-1,.666,2.344,2.344,0,0,0-.782.548,1.667,1.667,0,0,0-.221.418,5,5,0,0,0-.263,2.723,1.251,1.251,0,0,0,.116.374c.181.333.58.464.916.639a7.83,7.83,0,0,1,1.646,1.383,3.223,3.223,0,0,0,.651.5,3.862,3.862,0,0,0,2.5.13.45.45,0,0,0,.449-.455l.662-2.978a4.859,4.859,0,0,0,.17-1.354,3.854,3.854,0,0,0-.968-2.238A4.159,4.159,0,0,0,571.738,267.57Z" transform="translate(200.467 -72.872)" fill="#2f2e41"/>
    <ellipse id="Ellipse_5" data-name="Ellipse 5" cx="5" cy="0.441" rx="5" ry="0.441" transform="translate(754.444 264.575)" fill="#15ceff"/>
    <ellipse id="Ellipse_6" data-name="Ellipse 6" cx="4.853" cy="0.147" rx="4.853" ry="0.147" transform="translate(753.038 265.458)" fill="#15ceff"/>
    <ellipse id="Ellipse_7" data-name="Ellipse 7" cx="2.588" cy="0.148" rx="2.588" ry="0.148" transform="translate(750.936 263.435)" fill="#15ceff"/>
    <ellipse id="Ellipse_8" data-name="Ellipse 8" cx="2.588" cy="0.148" rx="2.588" ry="0.148" transform="translate(759.838 266.704)" fill="#15ceff"/>
    <path id="Path_141" data-name="Path 141" d="M283.69,428.781l-27.467,5.789a3.062,3.062,0,0,1-3.624-2.362l-4.713-22.361a3.062,3.062,0,0,1,2.362-3.624l27.467-5.789a3.062,3.062,0,0,1,3.624,2.362l4.713,22.36A3.062,3.062,0,0,1,283.69,428.781Z" transform="translate(461.18 -201.236)" fill="#fff"/>
    <path id="Path_142" data-name="Path 142" d="M283.69,428.781l-27.467,5.789a3.062,3.062,0,0,1-3.624-2.362l-4.713-22.361a3.062,3.062,0,0,1,2.362-3.624l27.467-5.789a3.062,3.062,0,0,1,3.624,2.362l4.713,22.36A3.062,3.062,0,0,1,283.69,428.781Zm-33.367-22.205a2.7,2.7,0,0,0-2.084,3.2l4.713,22.361a2.7,2.7,0,0,0,3.2,2.084l27.467-5.789a2.7,2.7,0,0,0,2.084-3.2l-4.713-22.361a2.7,2.7,0,0,0-3.2-2.084Z" transform="translate(461.18 -201.236)" fill="#3f3d56"/>
    <path id="Path_411" data-name="Path 411" d="M338.578,437.274,324.716,440.2a.491.491,0,0,1-.581-.335.473.473,0,0,1,.36-.586l14.111-2.974c.551.31.377.888-.027.973Z" transform="translate(398.61 -230.697)" fill="#ccc"/>
    <path id="Path_412" data-name="Path 412" d="M341.426,450.787l-13.862,2.922a.491.491,0,0,1-.581-.335.473.473,0,0,1,.36-.586l14.111-2.974c.551.31.377.888-.027.973Z" transform="translate(396.275 -241.78)" fill="#ccc"/>
    <path id="Path_413" data-name="Path 413" d="M288.25,455.111,284.02,456a.533.533,0,0,1-.631-.411l-1.052-4.992a.533.533,0,0,1,.411-.631l4.231-.892a.533.533,0,0,1,.631.411l1.052,4.992a.533.533,0,0,1-.411.631Z" transform="translate(432.884 -241.167)" fill="#ccc"/>
    <path id="Path_414" data-name="Path 414" d="M313.792,478.5l-21.156,4.459a.491.491,0,0,1-.581-.335.473.473,0,0,1,.36-.586l21.4-4.512c.551.31.377.888-.027.973Z" transform="translate(424.917 -264.513)" fill="#ccc"/>
    <path id="Path_415" data-name="Path 415" d="M316.641,492.019l-21.156,4.459a.491.491,0,0,1-.581-.335.473.473,0,0,1,.36-.586l21.4-4.512c.551.31.377.888-.027.973Z" transform="translate(422.581 -275.599)" fill="#ccc"/>
    <path id="Path_416" data-name="Path 416" d="M319.489,505.527l-21.156,4.459a.491.491,0,0,1-.581-.335.473.473,0,0,1,.36-.586l21.4-4.512c.551.31.377.888-.027.973Z" transform="translate(420.247 -286.679)" fill="#ccc"/>
    <path id="Path_417" data-name="Path 417" d="M322.338,519.043,301.181,523.5a.491.491,0,0,1-.581-.335.473.473,0,0,1,.36-.586l21.4-4.512c.551.31.377.888-.027.973Z" transform="translate(417.91 -297.765)" fill="#ccc"/>
    <path id="Path_418" data-name="Path 418" d="M325.185,532.552l-21.156,4.459a.491.491,0,0,1-.581-.335.473.473,0,0,1,.36-.586l21.4-4.512c.551.311.377.888-.027.973Z" transform="translate(415.575 -308.845)" fill="#ccc"/>
    <path id="Path_143" data-name="Path 143" d="M386.105,470.718a1.9,1.9,0,0,0-.123.272l-8.661,2.149-1.507-1.559-2.65,1.966,2.4,3.019a1.44,1.44,0,0,0,1.671.437l9.4-3.84a1.889,1.889,0,1,0-.528-2.444Z" transform="translate(357.427 -258.135)" fill="#a0616a"/>
    <path id="Path_144" data-name="Path 144" d="M269.256,490.114a1.933,1.933,0,0,0,1.148-2.733l5.96-16.566-4.139-.734L267.668,486.6a1.943,1.943,0,0,0,1.588,3.518Z" transform="translate(445.675 -258.41)" fill="#a0616a"/>
    <path id="Path_145" data-name="Path 145" d="M294.919,453.388l-4.087-1.568a.867.867,0,0,1-.444-1.235l2.144-3.8a2.407,2.407,0,0,1,4.489,1.738l-.946,4.246a.867.867,0,0,1-1.157.62Z" transform="translate(426.364 -238.034)" fill="#15ceff"/>
    <path id="Path_146" data-name="Path 146" d="M119.523,582.986h2.206l1.049-8.509h-3.256Z" transform="translate(610.983 -320.214)" fill="#a0616a"/>
    <path id="Path_147" data-name="Path 147" d="M364.216,750.262h4.345a2.768,2.768,0,0,1,2.769,2.769v.09h-7.113Z" transform="translate(364.904 -488.21)" fill="#2f2e41"/>
    <path id="Path_148" data-name="Path 148" d="M50.523,582.986h2.206l1.049-8.509H50.523Z" transform="translate(667.568 -320.214)" fill="#a0616a"/>
    <path id="Path_149" data-name="Path 149" d="M295.216,750.262h4.345a2.769,2.769,0,0,1,2.769,2.769v.09h-7.113Z" transform="translate(422.312 -488.21)" fill="#2f2e41"/>
    <path id="Path_150" data-name="Path 150" d="M294.783,599.913h-2.792a.81.81,0,0,1-.809-.848l1.326-28.49.084,0,13.481-.351,2.638,28.506a.81.81,0,0,1-.742.884l-3.136.251a.81.81,0,0,1-.858-.645l-4.011-20.293a.261.261,0,0,0-.264-.216h0a.262.262,0,0,0-.264.218l-3.858,20.333A.811.811,0,0,1,294.783,599.913Z" transform="translate(425.621 -340.565)" fill="#2f2e41"/>
    <circle id="Ellipse_9" data-name="Ellipse 9" cx="4.419" cy="4.419" r="4.419" transform="translate(721.098 195.813)" fill="#a0616a"/>
    <path id="Path_151" data-name="Path 151" d="M302.52,466.13a8.719,8.719,0,0,1-6.064-2.191.819.819,0,0,1-.264-.693c.192-1.725,1.123-10.631.6-16.58a7.2,7.2,0,0,1,2.331-5.993,7.125,7.125,0,0,1,6.111-1.77h0l.165.031a7.158,7.158,0,0,1,5.718,7.617c-.406,5.337-.77,12.556-.2,16.638a.808.808,0,0,1-.435.834A18.951,18.951,0,0,1,302.52,466.13Z" transform="translate(421.516 -232.746)" fill="#15ceff"/>
    <path id="Path_152" data-name="Path 152" d="M358.833,455.853a.866.866,0,0,1-.38-.614l-.538-4.317a2.407,2.407,0,0,1,4.634-1.3l1.773,3.988a.867.867,0,0,1-.56,1.187l-4.217,1.174A.866.866,0,0,1,358.833,455.853Z" transform="translate(370.195 -240.181)" fill="#15ceff"/>
    <path id="Path_153" data-name="Path 153" d="M311.524,384.38a3.167,3.167,0,0,1-1.223-.221c-.171-.066-.349-.12-.52-.186a4.216,4.216,0,0,1-2.539-3.808,5.483,5.483,0,0,1,2.046-4.222,7.917,7.917,0,0,1,4.468-1.689c1.738-.132,3.694.308,4.665,1.755a1.524,1.524,0,0,1,.286,1.318.843.843,0,0,1-.238.365c-.434.386-.866.1-1.308.07a1.446,1.446,0,0,0-1.349,1.033,3.111,3.111,0,0,0,.049,1.8,4.494,4.494,0,0,1,.226,1.093,1.1,1.1,0,0,1-.455.968,1.254,1.254,0,0,1-1.258-.132,8.741,8.741,0,0,0-1.118-.716.989.989,0,0,0-1.2.243,1.328,1.328,0,0,0-.152.438C311.689,383.462,311.738,383.4,311.524,384.38Z" transform="translate(412.451 -179.79)" fill="#2f2e41"/>
    <path id="Path_155" data-name="Path 155" d="M742.546,444.2l-24.482,13.732a3.062,3.062,0,0,1-4.164-1.171L702.72,436.828a3.062,3.062,0,0,1,1.171-4.164l24.482-13.732a3.062,3.062,0,0,1,4.164,1.171l11.179,19.931A3.062,3.062,0,0,1,742.546,444.2Z" transform="translate(83.747 -216.146)" fill="#fff"/>
    <path id="Path_156" data-name="Path 156" d="M742.546,444.2l-24.482,13.732a3.062,3.062,0,0,1-4.164-1.171L702.72,436.828a3.062,3.062,0,0,1,1.171-4.164l24.482-13.732a3.062,3.062,0,0,1,4.164,1.171l11.179,19.931A3.062,3.062,0,0,1,742.546,444.2Zm-38.478-11.22a2.7,2.7,0,0,0-1.034,3.674l11.179,19.931a2.7,2.7,0,0,0,3.674,1.034l24.482-13.732a2.7,2.7,0,0,0,1.034-3.674l-11.18-19.931a2.7,2.7,0,0,0-3.674-1.034Z" transform="translate(83.747 -216.146)" fill="#3f3d56"/>
    <path id="Path_411-2" data-name="Path 411" d="M790.631,458.379l-12.356,6.931a.491.491,0,0,1-.655-.146.473.473,0,0,1,.168-.666l12.577-7.055c.619.132.625.735.265.937Z" transform="translate(22.065 -248.038)" fill="#ccc"/>
    <path id="Path_412-2" data-name="Path 412" d="M797.387,470.423l-12.355,6.93a.491.491,0,0,1-.655-.146.473.473,0,0,1,.168-.666l12.577-7.055C797.74,469.618,797.747,470.221,797.387,470.423Z" transform="translate(16.524 -257.917)" fill="#ccc"/>
    <path id="Path_413-2" data-name="Path 413" d="M745.178,503.571l-3.771,2.115a.533.533,0,0,1-.725-.2l-2.5-4.45a.533.533,0,0,1,.2-.725l3.771-2.115a.533.533,0,0,1,.725.2l2.5,4.45a.533.533,0,0,1-.2.725Z" transform="translate(55.627 -281.406)" fill="#ccc"/>
    <path id="Path_414-2" data-name="Path 414" d="M781.39,495.2l-18.857,10.577a.491.491,0,0,1-.655-.146.473.473,0,0,1,.168-.666l19.079-10.7C781.744,494.391,781.75,494.994,781.39,495.2Z" transform="translate(34.974 -278.238)" fill="#ccc"/>
    <path id="Path_415-2" data-name="Path 415" d="M788.148,507.244l-18.857,10.577a.491.491,0,0,1-.655-.146.473.473,0,0,1,.168-.666l19.079-10.7c.619.132.625.735.265.937Z" transform="translate(29.432 -288.119)" fill="#ccc"/>
    <path id="Path_416-2" data-name="Path 416" d="M794.9,519.284l-18.857,10.577a.491.491,0,0,1-.655-.146.473.473,0,0,1,.168-.666l19.079-10.7c.619.132.625.735.265.937Z" transform="translate(23.893 -297.995)" fill="#ccc"/>
    <path id="Path_417-2" data-name="Path 417" d="M801.659,531.331,782.8,541.908a.491.491,0,0,1-.655-.146.473.473,0,0,1,.168-.666l19.079-10.7c.619.132.625.735.265.937Z" transform="translate(18.352 -307.876)" fill="#ccc"/>
    <path id="Path_418-2" data-name="Path 418" d="M808.413,543.373,789.556,553.95a.491.491,0,0,1-.655-.146.473.473,0,0,1,.168-.666l19.079-10.7C808.767,542.568,808.773,543.171,808.413,543.373Z" transform="translate(12.814 -317.753)" fill="#ccc"/>
    <path id="Path_157" data-name="Path 157" d="M860.663,554.6a1.7,1.7,0,0,0-1.13-2.351l-.513-6.023-2.466,1.946.865,5.422a1.71,1.71,0,0,0,3.244,1.007Z" transform="translate(-42.726 -320.861)" fill="#ffb8b8"/>
    <path id="Path_158" data-name="Path 158" d="M837.3,479.609l-2.048.244a.761.761,0,0,1-.851-.723l-.3-6.91-3.883-10.607a2.186,2.186,0,0,1,.115-2.081,2.857,2.857,0,0,1,.325-.42,2.179,2.179,0,0,1,1.9-.675,2.272,2.272,0,0,1,1.706,1.186l2.532,5.306a15.074,15.074,0,0,1,1.456,7.121l-.286,6.835a.761.761,0,0,1-.66.722Z" transform="translate(-20.954 -248.843)" fill="#15ceff"/>
    <path id="Path_159" data-name="Path 159" d="M635.7,576.281l-1.9.833-4.119-6.928,2.8-1.23Z" transform="translate(187.915 -315.686)" fill="#ffb8b8"/>
    <path id="Path_160" data-name="Path 160" d="M889.062,740l-6.123,2.688-.034-.077a2.6,2.6,0,0,1,1.337-3.429h0l3.74-1.642Z" transform="translate(-64.155 -477.775)" fill="#2f2e41"/>
    <path id="Path_161" data-name="Path 161" d="M507.489,586.02h-2.074l-.987-8h3.061Z" transform="translate(291.883 -323.119)" fill="#ffb8b8"/>
    <path id="Path_162" data-name="Path 162" d="M741.718,753.9h-6.687v-.085a2.6,2.6,0,0,1,2.6-2.6h4.084Z" transform="translate(58.2 -488.99)" fill="#2f2e41"/>
    <path id="Path_163" data-name="Path 163" d="M770.219,555.193l-11.553-25.782a.254.254,0,0,0-.478.034l-7.039,24.9a.757.757,0,0,1-.81.558l-3.844-.384a.766.766,0,0,1-.683-.819c1.223-15.209,3.15-29.563,8.925-38.96l.031-.05L763.5,516.4l11.661,37.134a.764.764,0,0,1-.495.947l-3.516,1.13A.758.758,0,0,1,770.219,555.193Z" transform="translate(48.092 -295.028)" fill="#2f2e41"/>
    <circle id="Ellipse_10" data-name="Ellipse 10" cx="4.155" cy="4.155" r="4.155" transform="translate(803.713 198.248)" fill="#ffb8b8"/>
    <path id="Path_164" data-name="Path 164" d="M790.181,461.531l-.053-.011-.013-.053a18.073,18.073,0,0,1-.04-7.666,6.022,6.022,0,0,1,6.029-4.872h0a6.032,6.032,0,0,1,5.905,5.8,21.061,21.061,0,0,1-1.755,8.785l-.029.059Z" transform="translate(12.11 -241.058)" fill="#15ceff"/>
    <path id="Path_165" data-name="Path 165" d="M721.554,531.286a1.7,1.7,0,0,0,1.364-2.223l4.786-3.693-2.971-1.019-4.089,3.664a1.71,1.71,0,0,0,.91,3.272Z" transform="translate(70.938 -302.916)" fill="#ffb8b8"/>
    <path id="Path_166" data-name="Path 166" d="M733.849,470.4a.759.759,0,0,1-.972-.171l-1.315-1.59a.761.761,0,0,1,.147-1.107l5.647-3.993,6.813-9.008a2.186,2.186,0,0,1,1.812-1.03,2.856,2.856,0,0,1,.529.046h0a2.178,2.178,0,0,1,1.6,1.232,2.272,2.272,0,0,1-.073,2.077l-5.045,8.17-.011.018Z" transform="translate(60.895 -244.805)" fill="#15ceff"/>
    <path id="Path_167" data-name="Path 167" d="M797.119,384.879a1.616,1.616,0,0,0-1.569-.589,16.835,16.835,0,0,1-1.747.259,2.586,2.586,0,0,1-2.212-3.493c.564-1.218,1.974-1.753,3.249-2.173,2.673-.88,5.745-1.726,8.171-.3a5.077,5.077,0,0,1,2.444,4.524c-.055,1.123-.485,2.277-.121,3.341a4,4,0,0,0,3.008,2.2c2.2.558,4.528.468,6.747.969s4.491,1.831,5.089,4.025a6.144,6.144,0,0,1-.7,4.323,11.2,11.2,0,0,1-15.619,4.581,14.209,14.209,0,0,1-5.772-7.095,23.758,23.758,0,0,1-1.373-5.218,11.606,11.606,0,0,1,.429-4.987A.458.458,0,0,0,797.119,384.879Z" transform="translate(10.704 -182.736)" fill="#2f2e41"/>
  </g>
</svg>
