<svg xmlns="http://www.w3.org/2000/svg" width="135.482" height="96.246" viewBox="0 0 135.482 96.246">
  <g id="Group_339" data-name="Group 339" transform="translate(-216.018 -593.88)">
    <rect id="Rectangle_120" data-name="Rectangle 120" width="135.422" height="88.495" transform="translate(216.078 593.96)" fill="#e6e6e6"/>
    <g id="Group_338" data-name="Group 338" transform="translate(216.018 593.88)">
      <rect id="Rectangle_121" data-name="Rectangle 121" width="50.87" height="52.272" transform="translate(12.521 12.198)" fill="#fff"/>
      <rect id="Rectangle_122" data-name="Rectangle 122" width="50.87" height="63.488" transform="translate(76.929 13.212)" fill="#fff"/>
      <rect id="Rectangle_123" data-name="Rectangle 123" width="135.422" height="5.986" fill="#15ceff"/>
      <circle id="Ellipse_14" data-name="Ellipse 14" cx="1.11" cy="1.11" r="1.11" transform="translate(3.339 1.951)" fill="#e6e6e6"/>
      <circle id="Ellipse_15" data-name="Ellipse 15" cx="1.11" cy="1.11" r="1.11" transform="translate(7.551 1.951)" fill="#e6e6e6"/>
      <circle id="Ellipse_16" data-name="Ellipse 16" cx="1.11" cy="1.11" r="1.11" transform="translate(11.762 1.951)" fill="#e6e6e6"/>
      <path id="Path_168" data-name="Path 168" d="M835.369,303.13h-.308v-8.442a4.886,4.886,0,0,0-4.886-4.886H812.29a4.886,4.886,0,0,0-4.886,4.886V341a4.886,4.886,0,0,0,4.886,4.886h17.885A4.886,4.886,0,0,0,835.061,341V309.139h.308Z" transform="translate(-718.786 -273.595)" fill="#3f3d56"/>
      <path id="Path_169" data-name="Path 169" d="M834.755,296.15h-2.335a1.733,1.733,0,0,1-1.605,2.388H820.57a1.734,1.734,0,0,1-1.605-2.388h-2.181a3.649,3.649,0,0,0-3.649,3.649v46.244a3.649,3.649,0,0,0,3.649,3.649h17.971a3.649,3.649,0,0,0,3.649-3.649V299.8A3.649,3.649,0,0,0,834.755,296.15Z" transform="translate(-723.369 -278.681)" fill="#fff"/>
      <rect id="Rectangle_124" data-name="Rectangle 124" width="35.358" height="1.613" transform="translate(20.312 44.397)" fill="#e6e6e6"/>
      <rect id="Rectangle_125" data-name="Rectangle 125" width="35.358" height="1.613" transform="translate(20.312 49.509)" fill="#15ceff"/>
      <rect id="Rectangle_126" data-name="Rectangle 126" width="35.358" height="1.613" transform="translate(20.312 54.622)" fill="#e6e6e6"/>
      <rect id="Rectangle_127" data-name="Rectangle 127" width="20.641" height="1.613" transform="translate(93.308 47.852)" fill="#e6e6e6"/>
      <rect id="Rectangle_128" data-name="Rectangle 128" width="20.641" height="1.613" transform="translate(93.308 52.768)" fill="#e6e6e6"/>
      <rect id="Rectangle_129" data-name="Rectangle 129" width="20.641" height="1.613" transform="translate(93.308 57.684)" fill="#e6e6e6"/>
      <rect id="Rectangle_130" data-name="Rectangle 130" width="3.44" height="3.44" transform="translate(115.08 78.604) rotate(90)" fill="#3f3d56"/>
      <rect id="Rectangle_131" data-name="Rectangle 131" width="3.44" height="3.44" transform="translate(110.571 78.604) rotate(90)" fill="#15ceff"/>
      <rect id="Rectangle_132" data-name="Rectangle 132" width="3.44" height="3.44" transform="translate(105.25 78.604) rotate(90)" fill="#3f3d56"/>
      <rect id="Rectangle_133" data-name="Rectangle 133" width="3.44" height="3.44" transform="translate(99.928 78.604) rotate(90)" fill="#3f3d56"/>
      <rect id="Rectangle_134" data-name="Rectangle 134" width="3.44" height="3.44" transform="translate(94.607 78.604) rotate(90)" fill="#3f3d56"/>
      <rect id="Rectangle_135" data-name="Rectangle 135" width="11.467" height="11.467" transform="translate(97.824 27.274)" fill="#15ceff"/>
      <path id="Path_170" data-name="Path 170" d="M501.49,463.755l-.148.3-.445-2.226s-.594-2.375.594-2.375.891,2.375.891,2.375v1.633Z" transform="translate(-469.346 -409.513)" fill="#a0616a"/>
      <path id="Path_171" data-name="Path 171" d="M598.008,462.237l.148.3.445-2.226s.594-2.375-.594-2.375-.891,2.375-.891,2.375v1.633Z" transform="translate(-547.149 -408.294)" fill="#a0616a"/>
      <path id="Path_172" data-name="Path 172" d="M375.1,358.94l-1.781,10.984.89,10.687,2.078-.89-.3-8.015,2.078-6.383.445,7.57-.89,7.867,2.672.3,1.93-16.179-.148-5.492Z" transform="translate(-336.726 -288.802)" fill="#2f2e41"/>
      <path id="Path_173" data-name="Path 173" d="M532.915,665.232l-1.039,1.633v3.648a.442.442,0,0,0,.372.437c.509.084,1.4.143,1.706-.374a4.547,4.547,0,0,0,.148-2.375,3.277,3.277,0,0,0,.3-2.078c-.3-.891-.594-1.039-.594-1.039Z" transform="translate(-494.496 -574.76)" fill="#2f2e41"/>
      <path id="Path_174" data-name="Path 174" d="M552.186,672.644l.3.445s.445.445.148.742a5.809,5.809,0,0,0-.594.742s-1.633.445-1.633-.148V672.5Z" transform="translate(-509.457 -580.687)" fill="#2f2e41"/>
      <circle id="Ellipse_17" data-name="Ellipse 17" cx="1.968" cy="1.968" r="1.968" transform="translate(40.235 54.832)" fill="#a0616a"/>
      <path id="Path_175" data-name="Path 175" d="M394.592,291.867l-.148,2.82,2.672.148-.148-2.82Z" transform="translate(-353.715 -234.489)" fill="#a0616a"/>
      <path id="Path_176" data-name="Path 176" d="M536.629,506.954l-.421-1.029s-1.954-.752-2.547-.01l-.3.891-2.375-.594-1.336,2.969,1.187,8.461s3.117,4.008,7.273.148l1.188-8.015-.891-3.117Z" transform="translate(-492.782 -446.708)" fill="#575a89"/>
      <path id="Path_177" data-name="Path 177" d="M417.049,277.645l.3-.594,2.969-1.781,1.812-5.363,1.4.6-1.581,6.395-4.3,4.008Z" transform="translate(-372.025 -216.938)" fill="#575a89"/>
      <path id="Path_178" data-name="Path 178" d="M353.321,278.165l-.3-.3-3.117-1.93-2.226-4.453-1.781.594,1.929,5.492,4.75,3.859Z" transform="translate(-314.553 -218.194)" fill="#575a89"/>
      <path id="Path_179" data-name="Path 179" d="M549.8,476.027l.322-.161-.483-.161v-.161s-2.413-.965-2.734.643a3.233,3.233,0,0,0,0,3.86v.482l2.574.322.322-.965S551.413,476.992,549.8,476.027Z" transform="translate(-506.141 -422.225)" fill="#2f2e41"/>
      <path id="Path_180" data-name="Path 180" d="M260.7,565.16l-.572.286s-2.287,1.048-1.62,1.62,2.478-.572,2.478-.572l.381-.477Z" transform="translate(-188.354 -494.413)" fill="#ffb8b8"/>
      <path id="Path_181" data-name="Path 181" d="M165.313,359.1l-1.768,11.866-2.669,8.292-1.43-.667,1.334-11.342-3.812-3.241.286-4.766Z" transform="translate(-76.797 -288.93)" fill="#2f2e41"/>
      <path id="Path_182" data-name="Path 182" d="M319.9,662.041s1.62-.858,1.716.381l-.191,1.239s.572,2.192-1.334,1.716-.572-1.906-.572-1.906Z" transform="translate(-237.358 -572.095)" fill="#2f2e41"/>
      <path id="Path_183" data-name="Path 183" d="M313.057,583.72l-1.239,1.048s0,6.481.858,7.434,6.291,5.814,6.481,6,1.048-1.906,1.048-1.906l-5.147-6,.381-3.717Z" transform="translate(-231.647 -509.691)" fill="#2f2e41"/>
      <path id="Path_184" data-name="Path 184" d="M347.417,644.97s1.525-.286,1.525.762a23.072,23.072,0,0,0,.191,2.478s.381,3.336-.858,2.859-1.716-3.812-1.716-3.812a1.42,1.42,0,0,1,.572-.667C347.512,646.4,347.417,644.97,347.417,644.97Z" transform="translate(-259.562 -558.645)" fill="#2f2e41"/>
      <path id="Path_185" data-name="Path 185" d="M161.161,288.424l.286,3.527-.762,1.334-2.1-2-.191-2.669Z" transform="translate(-77.818 -231.745)" fill="#ffb8b8"/>
      <circle id="Ellipse_18" data-name="Ellipse 18" cx="2.287" cy="2.287" r="2.287" transform="translate(79.353 53.316)" fill="#ffb8b8"/>
      <path id="Path_186" data-name="Path 186" d="M156.973,294.52l.953-2.764,1.716,1.906,3.145,12.1L160.4,307.2l-1.048-1.525-.191,2-4.67-.953-.381-12.772.952-1.342Z" transform="translate(-74.499 -234.57)" fill="#d0cde1"/>
      <path id="Path_187" data-name="Path 187" d="M145.362,311.479l-.572-15.44-1.239.953-2.288,1.525,1.525,5.433.476,5.719Z" transform="translate(-64.004 -238.006)" fill="#2f2e41"/>
      <path id="Path_188" data-name="Path 188" d="M119.1,308.507l-.667-.1-1.906,5.623L112.71,318.8l1.43,1.525,4.384-4.289,1.62-3.526Z" transform="translate(-41.014 -247.9)" fill="#2f2e41"/>
      <path id="Path_189" data-name="Path 189" d="M350.1,565.595l-.13.626s-.595,2.445.267,2.276,1.087-2.3,1.087-2.3l-.138-.595Z" transform="translate(-262.127 -494.774)" fill="#ffb8b8"/>
      <path id="Path_190" data-name="Path 190" d="M172.1,290.983l4.724,1.87-.572,5.719,1.144,6.291-1.144,1.239-4.229-14.309Z" transform="translate(-88.881 -233.936)" fill="#2f2e41"/>
      <path id="Path_191" data-name="Path 191" d="M307.98,467.54l.671-.336v.336l.448-.224v.56s1.679,1.231,1.343,2.686-.336,1.567-.336,1.567-.424-2.767-2.1-2.319-1.814.529-2.261,1.759l-.121.528S303.728,467.764,307.98,467.54Z" transform="translate(-226.223 -415.747)" fill="#2f2e41"/>
      <path id="Path_192" data-name="Path 192" d="M189.617,300.322h.762l1.239,6.672v5.814l-1.525-.286-1.239-8.769Z" transform="translate(-102.411 -241.405)" fill="#2f2e41"/>
      <rect id="Rectangle_136" data-name="Rectangle 136" width="28.103" height="19.529" transform="translate(50.331 72.507)" fill="#15ceff"/>
      <path id="Path_193" data-name="Path 193" d="M204.77,595.148a5.954,5.954,0,1,0,5.954,5.954A5.954,5.954,0,0,0,204.77,595.148Zm0,1.786a1.786,1.786,0,1,1-1.786,1.786,1.786,1.786,0,0,1,1.786-1.786Zm0,8.6a4.337,4.337,0,0,1-3.572-1.906c.029-1.191,2.382-1.846,3.572-1.846s3.544.656,3.572,1.846a4.344,4.344,0,0,1-3.572,1.906Z" transform="translate(-140.409 -518.83)" fill="#fff"/>
      <rect id="Rectangle_137" data-name="Rectangle 137" width="35.249" height="20.228" transform="translate(20.331 17.797)" fill="#e6e6e6"/>
      <path id="Path_194" data-name="Path 194" d="M958.989,483.252l.163-1.053s.952-2.164.2-2.281-1.38,1.943-1.38,1.943l.275,2.2Z" transform="translate(-839.198 -425.949)" fill="#ffb8b8"/>
      <path id="Path_195" data-name="Path 195" d="M808.789,295.486l-6.726-1.351-.781-4.9-1.98-.153.1,6.333,5.844,3.064Z" transform="translate(-681.294 -232.331)" fill="#575a89"/>
      <path id="Path_196" data-name="Path 196" d="M808.789,295.486l-6.726-1.351-.781-4.9-1.98-.153.1,6.333,5.844,3.064Z" transform="translate(-681.294 -232.331)" opacity="0.2"/>
      <rect id="Rectangle_138" data-name="Rectangle 138" width="20.641" height="1.613" transform="translate(129.84 56.025) rotate(180)" fill="#15ceff"/>
      <path id="Path_197" data-name="Path 197" d="M951.631,481.4v-1.066s.612-2.284-.15-2.284-1.069,2.131-1.069,2.131l.606,2.133Z" transform="translate(-833.154 -424.454)" fill="#ffb8b8"/>
      <path id="Path_198" data-name="Path 198" d="M988.015,485.347l.923-.225a2.376,2.376,0,0,0,2.332-2.846h0a3.105,3.105,0,0,0-3.1-3.109h0a3.105,3.105,0,0,0-3.109,3.1h0a2.467,2.467,0,0,0,2.955,3.079Z" transform="translate(-860.784 -425.374)" fill="#2f2e41"/>
      <path id="Path_199" data-name="Path 199" d="M818.254,376.608l.751,8.225,1.36,8.073,2.284,0-.295-7.919-1.206-9.6Z" transform="translate(-696.449 -301.96)" fill="#2f2e41"/>
      <path id="Path_200" data-name="Path 200" d="M970.947,665.9l-1.524.912s-2.437.3-1.981,1.063,5.786.312,5.787.007-.15-1.98-.454-1.98Z" transform="translate(-846.726 -575.416)" fill="#2f2e41"/>
      <path id="Path_201" data-name="Path 201" d="M983.494,576.991a7.181,7.181,0,0,1-1.111,3l.145,5.635L988,592.64l-1.982,1.673-6.691-7.623-1.664-9.139,2.135-2.129Z" transform="translate(-854.947 -503.054)" fill="#2f2e41"/>
      <path id="Path_202" data-name="Path 202" d="M1018.216,661.394s1.827.307,1.521,1.068-1.071,4.263-3.051,3.8c0,0-.914,0-.608-.61a11.027,11.027,0,0,1,.61-1.065l0-1.98Z" transform="translate(-885.617 -571.809)" fill="#2f2e41"/>
      <circle id="Ellipse_19" data-name="Ellipse 19" cx="2.284" cy="2.284" r="2.284" transform="translate(123.958 55.545)" fill="#ffb8b8"/>
      <path id="Path_203" data-name="Path 203" d="M835.986,301.642l0,2.589-2.436,0,.308-2.588Z" transform="translate(-708.679 -242.336)" fill="#ffb8b8"/>
      <path id="Path_204" data-name="Path 204" d="M974.34,514.623l.738-.181,2.307.185s1.217,1.22,1.064,1.524-.923,7.766-.923,7.766l1.364,5.332-4.874.3-2.436-.308.469-9.594s-1.063-2.59.309-3.35A6,6,0,0,0,974.34,514.623Z" transform="translate(-850.081 -453.844)" fill="#575a89"/>
      <path id="Path_205" data-name="Path 205" d="M802.867,292.947l-6.852-.313-1.517-4.723-1.98.15,1.058,6.245,6.241,2.14Z" transform="translate(-675.868 -231.377)" fill="#575a89"/>
      <circle id="Ellipse_20" data-name="Ellipse 20" cx="1.474" cy="1.474" r="1.474" transform="translate(129.178 53.26)" fill="#2f2e41"/>
      <path id="Path_206" data-name="Path 206" d="M1009.135,473.347a1.473,1.473,0,0,1,1.764-1.443,1.473,1.473,0,1,0-.919,2.776,1.472,1.472,0,0,1-.845-1.333Z" transform="translate(-879.843 -419.388)" fill="#2f2e41"/>
      <path id="Path_207" data-name="Path 207" d="M985.8,482.386l-1.987-.366-1.528.958a2.318,2.318,0,0,0-1.068,2.262l1.53-.388.343-.859.408.669,1.656,2.895,1.676-.912,1.068-1.674Z" transform="translate(-857.775 -427.658)" fill="#2f2e41"/>
      <rect id="Rectangle_139" data-name="Rectangle 139" width="0.4" height="40.64" transform="translate(20.232 17.973) rotate(-60.15)" fill="#fff"/>
      <rect id="Rectangle_140" data-name="Rectangle 140" width="40.64" height="0.4" transform="matrix(0.867, -0.498, 0.498, 0.867, 20.231, 37.852)" fill="#fff"/>
      <rect id="Rectangle_141" data-name="Rectangle 141" width="0.401" height="16.144" transform="translate(97.767 27.4) rotate(-45)" fill="#fff"/>
      <rect id="Rectangle_142" data-name="Rectangle 142" width="16.144" height="0.401" transform="translate(97.767 38.532) rotate(-45)" fill="#fff"/>
    </g>
  </g>
</svg>
