<svg xmlns="http://www.w3.org/2000/svg" width="19.593" height="20.681" viewBox="0 0 19.593 20.681">
  <path id="Icon_material-location-city" data-name="Icon material-location-city" d="M17.562,12.8V6.265L14.3,3,11.031,6.265V8.442H4.5V23.681H24.093V12.8ZM8.854,21.5H6.677V19.327H8.854Zm0-4.354H6.677V14.973H8.854Zm0-4.354H6.677V10.619H8.854ZM15.385,21.5H13.208V19.327h2.177Zm0-4.354H13.208V14.973h2.177Zm0-4.354H13.208V10.619h2.177Zm0-4.354H13.208V6.265h2.177ZM21.916,21.5H19.739V19.327h2.177Zm0-4.354H19.739V14.973h2.177Z" transform="translate(-4.5 -3)" fill="#15ceff"/>
</svg>
