<svg xmlns="http://www.w3.org/2000/svg" width="26.124" height="26.124" viewBox="0 0 26.124 26.124">
  <path id="Icon_simple-whatsapp" data-name="Icon simple-whatsapp" d="M19.046,15.655c-.328-.163-1.923-.944-2.221-1.051s-.515-.163-.733.163-.839,1.049-1.028,1.265-.38.229-.7.082A8.834,8.834,0,0,1,11.747,14.5,9.875,9.875,0,0,1,9.94,12.243c-.189-.327-.021-.506.142-.669.148-.147.328-.376.491-.569a2.759,2.759,0,0,0,.323-.54.6.6,0,0,0-.027-.57c-.082-.163-.731-1.763-1-2.4s-.53-.555-.731-.555c-.187-.016-.4-.016-.622-.016a1.227,1.227,0,0,0-.868.391,3.634,3.634,0,0,0-1.137,2.694,6.369,6.369,0,0,0,1.327,3.347,14.514,14.514,0,0,0,5.551,4.882c.777.327,1.382.522,1.855.685a4.5,4.5,0,0,0,2.046.132A3.35,3.35,0,0,0,19.481,17.5a2.694,2.694,0,0,0,.2-1.551c-.081-.147-.294-.229-.62-.376m-5.928,8.1h-.017a10.889,10.889,0,0,1-5.5-1.5l-.392-.233L3.135,23l1.094-3.968-.26-.408A10.8,10.8,0,0,1,20.783,5.308a10.654,10.654,0,0,1,3.166,7.609,10.809,10.809,0,0,1-10.814,10.76m9.2-19.922A13.216,13.216,0,0,0,13.111,0,12.942,12.942,0,0,0,1.846,19.417L0,26.124l6.9-1.8A13.13,13.13,0,0,0,13.111,25.9h.007A13,13,0,0,0,26.124,12.952,12.838,12.838,0,0,0,22.32,3.8" fill="#fff"/>
</svg>
