<svg xmlns="http://www.w3.org/2000/svg" width="91" height="91" viewBox="0 0 91 91">
  <g id="Java-icon" transform="translate(-18721 -1863)">
    <rect id="Rectangle_113" data-name="Rectangle 113" width="91" height="91" transform="translate(18721 1863)" fill="#fff" opacity="0"/>
    <g id="java-seeklogo.com" transform="translate(18743.229 1876.893)">
      <path id="Path_48" data-name="Path 48" d="M69,267.473s-2.422,1.408,1.724,1.885a36.268,36.268,0,0,0,13.124-.557,22.836,22.836,0,0,0,3.487,1.7C74.926,275.822,59.253,270.2,69,267.473" transform="translate(-53.943 -218.456)" fill="#5382a1"/>
      <path id="Path_49" data-name="Path 49" d="M59.115,229.659s-2.717,2.011,1.432,2.44a51.2,51.2,0,0,0,16.934-.813,7.517,7.517,0,0,0,2.609,1.59c-15,4.387-31.711.346-20.975-3.217" transform="translate(-45.576 -187.581)" fill="#5382a1"/>
      <path id="Path_50" data-name="Path 50" d="M131.466,88.275c3.057,3.52-.8,6.687-.8,6.687s7.763-4.007,4.2-9.026c-3.33-4.68-5.883-7.005,7.94-15.022,0,0-21.7,5.419-11.335,17.361" transform="translate(-105.145 -57.968)" fill="#e76f00"/>
      <path id="Path_51" data-name="Path 51" d="M43.248,293.057s1.792,1.477-1.974,2.619c-7.162,2.17-29.809,2.825-36.1.086-2.262-.984,1.979-2.349,3.314-2.636a8.6,8.6,0,0,1,2.186-.245c-2.515-1.772-16.256,3.479-6.98,4.982,25.3,4.1,46.116-1.847,39.554-4.807" transform="translate(-0.517 -238.907)" fill="#5382a1"/>
      <path id="Path_52" data-name="Path 52" d="M39.383,190.434s-11.52,2.736-4.079,3.73A86.511,86.511,0,0,0,50.541,194c4.767-.4,9.554-1.257,9.554-1.257a20.227,20.227,0,0,0-2.9,1.55c-11.7,3.077-34.3,1.645-27.791-1.5a21.8,21.8,0,0,1,9.975-2.358" transform="translate(-23.164 -155.546)" fill="#5382a1"/>
      <path id="Path_53" data-name="Path 53" d="M200.443,199.306c11.892-6.179,6.393-12.117,2.556-11.318a8.887,8.887,0,0,0-1.36.366,2.167,2.167,0,0,1,1.016-.784c7.592-2.669,13.431,7.872-2.451,12.047a1.031,1.031,0,0,0,.239-.311" transform="translate(-163.558 -152.868)" fill="#5382a1"/>
      <path id="Path_54" data-name="Path 54" d="M97.253.371s6.586,6.588-6.246,16.718c-10.29,8.126-2.346,12.76,0,18.054C85,29.724,80.588,24.954,83.545,20.513,87.885,14,99.91,10.836,97.253.371" transform="translate(-67.538 -0.371)" fill="#e76f00"/>
      <path id="Path_55" data-name="Path 55" d="M55.4,318.832c11.414.731,28.942-.405,29.358-5.806,0,0-.8,2.047-9.433,3.673a93.847,93.847,0,0,1-28.885.444s1.459,1.208,8.961,1.689" transform="translate(-38.012 -255.649)" fill="#5382a1"/>
    </g>
  </g>
</svg>
