<svg xmlns="http://www.w3.org/2000/svg" width="91" height="91" viewBox="0 0 91 91">
  <g id="Laravel-icon" transform="translate(-18963 -1846)">
    <rect id="Rectangle_116" data-name="Rectangle 116" width="91" height="91" transform="translate(18963 1846)" fill="#fff" opacity="0"/>
    <path id="Laravel" d="M36.825,8.848a.637.637,0,0,1,.021.16V17.4a.616.616,0,0,1-.3.531l-6.833,4.056v8.04a.617.617,0,0,1-.3.531L15.153,39.027a.627.627,0,0,1-.1.044c-.013,0-.026.013-.04.017a.58.58,0,0,1-.3,0,.507.507,0,0,1-.047-.02.607.607,0,0,1-.1-.041L.3,30.561A.616.616,0,0,1,0,30.03V4.846a.644.644,0,0,1,.021-.161c0-.018.015-.034.021-.051a.614.614,0,0,1,.038-.095A.571.571,0,0,1,.12,4.485a.622.622,0,0,1,.053-.071.582.582,0,0,1,.059-.046A.486.486,0,0,1,.3,4.315h0L7.429.082a.58.58,0,0,1,.594,0l7.131,4.233h0a.731.731,0,0,1,.065.052.705.705,0,0,1,.058.046.714.714,0,0,1,.053.072.563.563,0,0,1,.04.054.65.65,0,0,1,.039.095c.006.018.016.034.021.052a.637.637,0,0,1,.021.16V20.576l5.942-3.528V9.007a.637.637,0,0,1,.021-.159c.005-.018.015-.034.021-.052a.7.7,0,0,1,.039-.095c.011-.02.027-.036.04-.054a.627.627,0,0,1,.053-.071.572.572,0,0,1,.058-.046.6.6,0,0,1,.065-.053h0l7.132-4.233a.579.579,0,0,1,.594,0l7.131,4.233a.658.658,0,0,1,.067.052c.019.015.04.029.057.046a.713.713,0,0,1,.053.072.461.461,0,0,1,.04.054A.617.617,0,0,1,36.8,8.8a.445.445,0,0,1,.021.052Zm-1.168,8.2V10.067l-2.5,1.481-3.448,2.047v6.981l5.944-3.528ZM28.526,29.676V22.69l-3.391,2-9.684,5.7v7.051l13.075-7.761ZM1.189,5.906v23.77l13.073,7.76v-7.05L7.432,26.4l0,0,0,0a28.389,28.389,0,0,0-.12-.095v0a.581.581,0,0,1-.049-.064.652.652,0,0,1-.045-.06v0A.5.5,0,0,1,7.18,26.1a.461.461,0,0,1-.028-.069h0a.6.6,0,0,1-.012-.09.546.546,0,0,1-.009-.069V9.434L3.684,7.386l-2.5-1.48ZM7.726,1.32,1.785,4.846l5.94,3.526,5.941-3.527L7.725,1.32Zm3.09,22.007,3.447-2.046V5.906l-2.5,1.481L8.32,9.434V24.809l2.5-1.482ZM29.12,5.481,23.179,9.007l5.941,3.526,5.94-3.527L29.12,5.481Zm-.594,8.114-3.448-2.047-2.5-1.481v6.981l3.447,2.046,2.5,1.482V13.595ZM14.856,29.326,23.57,24.2l4.356-2.563L21.989,18.11l-6.835,4.057-6.229,3.7,5.931,3.461Z" transform="translate(18990 1872)" fill="#ff2d20" fill-rule="evenodd"/>
  </g>
</svg>
