<svg xmlns="http://www.w3.org/2000/svg" width="91" height="91" viewBox="0 0 91 91">
  <g id="Oracle-icon" transform="translate(-18963 -2072)">
    <rect id="Rectangle_117" data-name="Rectangle 117" width="91" height="91" transform="translate(18963 2072)" fill="#fff" opacity="0"/>
    <path id="oracle-logo" d="M46.91,13.845h5.281L49.4,9.352l-5.125,8.123H41.941l6.234-9.758A1.473,1.473,0,0,1,49.4,7.085a1.446,1.446,0,0,1,1.2.616l6.259,9.774H54.524l-1.1-1.815H48.076ZM71.14,15.66V7.183H69.161V16.49a.97.97,0,0,0,.288.69,1.011,1.011,0,0,0,.723.3H79.2l1.166-1.815Zm-32.748-1.52a3.479,3.479,0,1,0,0-6.957h-8.66V17.475h1.979V9h6.55a1.667,1.667,0,0,1,0,3.335l-5.58-.008,5.909,5.15h2.875l-3.975-3.335ZM17.552,17.475a5.146,5.146,0,1,1,0-10.292h5.982a5.146,5.146,0,0,1,0,10.292ZM23.4,15.66A3.331,3.331,0,1,0,23.4,9H17.684a3.331,3.331,0,1,0,0,6.661Zm37.588,1.815a5.146,5.146,0,1,1,0-10.292h7.1L66.935,9H61.119a3.331,3.331,0,1,0,0,6.661h7.138l-1.166,1.815ZM85.194,15.66a3.326,3.326,0,0,1-3.2-2.423h8.46l1.166-1.815H81.99A3.336,3.336,0,0,1,85.194,9H91l1.175-1.815H85.063a5.146,5.146,0,1,0,0,10.292h6.1l1.166-1.815Zm8.041-7.384a.908.908,0,1,1,.9.912A.9.9,0,0,1,93.235,8.276Zm.9,1.166a1.158,1.158,0,1,0-1.15-1.158A1.157,1.157,0,0,0,94.139,9.442Zm-.107-1.848a.836.836,0,0,1,.337.041A.362.362,0,0,1,94.623,8a.326.326,0,0,1-.017.107.333.333,0,0,1-.156.222c-.017.008-.025.017-.058.033l.3.534H94.4L94.139,8.4h-.181v.493H93.7v-1.3Zm.09.591c.082-.008.164-.008.213-.082a.174.174,0,0,0,.033-.115.184.184,0,0,0-.1-.156.592.592,0,0,0-.238-.025h-.074v.378Z" transform="translate(18954.764 2105.205)" fill="#f80000"/>
  </g>
</svg>
