<svg xmlns="http://www.w3.org/2000/svg" width="91" height="91" viewBox="0 0 91 91">
  <g id="React-icon" transform="translate(-18479 -2089)">
    <rect id="Rectangle_111" data-name="Rectangle 111" width="91" height="91" transform="translate(18479 2089)" fill="#fff" opacity="0"/>
    <g id="reactjs-icon" transform="translate(18481.336 2096.254)">
      <circle id="Ellipse_1" data-name="Ellipse 1" cx="8.045" cy="8.045" r="8.045" transform="translate(35.08 30.032)" fill="#00d8ff"/>
      <g id="Group_59" data-name="Group 59" transform="translate(0 0)">
        <path id="Path_67" data-name="Path 67" d="M43.161,7.725c10.8,0,20.837,1.55,28.4,4.155,9.116,3.138,14.721,7.9,14.721,12.2,0,4.489-5.94,9.543-15.73,12.786-7.4,2.452-17.141,3.732-27.395,3.732-10.513,0-20.468-1.2-27.953-3.759C5.739,33.606.035,28.487.035,24.083c0-4.273,5.352-8.993,14.34-12.127C21.97,9.309,32.252,7.725,43.16,7.725Z" transform="translate(-0.035 13.994)" fill="none" stroke="#00d8ff" stroke-width="1.367" fill-rule="evenodd"/>
        <path id="Path_68" data-name="Path 68" d="M17.7,29.957c5.4-9.357,11.752-17.276,17.789-22.529C42.757,1.1,49.678-1.38,53.409.771c3.889,2.242,5.3,9.913,3.218,20.014-1.572,7.637-5.33,16.713-10.452,25.6-5.252,9.107-11.266,17.131-17.22,22.335-7.534,6.586-14.818,8.97-18.633,6.77C6.62,73.353,5.2,66.358,6.98,57.006c1.5-7.9,5.265-17.6,10.713-27.049Z" transform="translate(11.191 -0.011)" fill="none" stroke="#00d8ff" stroke-width="1.367" fill-rule="evenodd"/>
        <path id="Path_69" data-name="Path 69" d="M17.694,46.348C12.282,37,8.6,27.539,7.06,19.685,5.208,10.223,6.517,2.989,10.245.831c3.885-2.249,11.235.36,18.946,7.207C35.022,13.215,41.009,21,46.147,29.877c5.267,9.1,9.215,18.316,10.751,26.074,1.943,9.817.37,17.318-3.44,19.524-3.7,2.141-10.464-.126-17.68-6.335-6.1-5.246-12.618-13.352-18.084-22.791Z" transform="translate(11.205 0.045)" fill="none" stroke="#00d8ff" stroke-width="1.367" fill-rule="evenodd"/>
      </g>
    </g>
  </g>
</svg>
