<svg xmlns="http://www.w3.org/2000/svg" width="91" height="91" viewBox="0 0 91 91">
  <g id="Webflow-icon" transform="translate(-18721 -2315)">
    <rect id="Rectangle_115" data-name="Rectangle 115" width="91" height="91" transform="translate(18721 2315)" fill="#fff" opacity="0"/>
    <g id="webflow" transform="translate(18732.115 2351.817)">
      <path id="Path_72" data-name="Path 72" d="M22.1,6.73C22.1,5.5,20.9,4.2,18.836,4.2a5.4,5.4,0,0,0-5.257,5.1c-.4,3.429,1.735,4.953,3.886,4.953a5.719,5.719,0,0,0,4.428-1.956,1.958,1.958,0,0,0-2.514-.542,2.574,2.574,0,0,1-1.329.322c-.83,0-1.676-.372-1.676-1.922C21.689,9.626,22.1,7.958,22.1,6.73Zm-2.633.2c-.034.381-.186,1.033-2.878,1.4.567-2.015,1.651-2.167,2.15-2.167a.7.7,0,0,1,.728.77Zm-9.008.33s-1.143,3.589-1.236,3.886c-.034-.3-.872-6.747-.872-6.747C6.4,4.4,5.359,5.79,4.809,7.255c0,0-1.388,3.6-1.507,3.9C3.293,10.878,3.09,7.3,3.09,7.3A3.181,3.181,0,0,0,0,4.411l1.608,9.761a3.953,3.953,0,0,0,3.717-2.853S6.552,8.144,6.6,8c.009.135.88,6.172.88,6.172a3.924,3.924,0,0,0,3.742-2.709L14.1,4.411a3.831,3.831,0,0,0-3.64,2.853ZM29.613,4.182a3.877,3.877,0,0,0-3.039,1.693V5.867L27.3,0C25.626,0,24.263,1.456,24,3.623L22.73,14.1a3.2,3.2,0,0,0,2.54-.99,2.812,2.812,0,0,0,2.32,1.143c2.828,0,4.766-3.285,4.766-6.366-.017-2.811-1.38-3.7-2.743-3.7Zm-.262,5.037c-.3,1.718-1.253,2.887-2.176,2.887a1.876,1.876,0,0,1-1.329-.415,12.032,12.032,0,0,1,.626-3.225c.339-.8,1.143-2.066,1.981-2.066.821,0,1.194,1.092.9,2.819ZM39.416,4.41H37.444l.009-.1c.135-1.287.44-1.964,1.448-2.074a1.056,1.056,0,0,0,1.067-.813c.059-.3.246-1.363.246-1.363C36.25.034,35.006,1.744,34.684,4.351l-.009.059h-.042A1.794,1.794,0,0,0,33.16,6.061l-.042.339h1.321L33.33,15.56,32.991,17.2c.042,0,.093.008.135.008,1.854-.068,3.039-1.532,3.3-3.657L37.292,6.4h.618a1.692,1.692,0,0,0,1.448-1.625l.059-.364Zm10.261-.169A5.414,5.414,0,0,0,44.589,8.55c-.66,2.633.339,5.748,3.691,5.748s5.274-3.242,5.274-5.943a3.807,3.807,0,0,0-3.877-4.114ZM50.6,9.134c-.119,1.194-.643,3.005-2.083,3.005s-1.245-2.116-1.1-3.124c.152-1.075.754-2.608,2.049-2.608,1.16,0,1.27,1.38,1.134,2.726ZM64.805,7.263s-1.143,3.589-1.236,3.886c-.034-.3-.872-6.747-.872-6.747-1.947,0-2.988,1.388-3.539,2.853,0,0-1.388,3.6-1.507,3.9-.009-.279-.212-3.86-.212-3.86a3.181,3.181,0,0,0-3.09-2.887l1.6,9.761a3.953,3.953,0,0,0,3.716-2.853S60.894,8.144,60.936,8c.008.135.88,6.172.88,6.172a3.924,3.924,0,0,0,3.742-2.709l2.87-7.052a3.81,3.81,0,0,0-3.623,2.853ZM41.279.059,39.62,13.444l-.339,1.651c.042,0,.093.009.135.009,1.786-.025,3.056-1.592,3.293-3.564l.957-7.678c.288-2.345-1.109-3.8-2.387-3.8Z" transform="translate(0 0.261)" fill="#4353ff"/>
      <rect id="Rectangle_44" data-name="Rectangle 44" width="68.076" height="17.366" transform="translate(0.129 0)" fill="rgba(0,0,0,0)"/>
    </g>
  </g>
</svg>
