<svg xmlns="http://www.w3.org/2000/svg" width="131" height="131" viewBox="0 0 131 131">
  <g id="AdobeXD-icon" transform="translate(-18255 -2315)">
    <rect id="Rectangle_106" data-name="Rectangle 106" width="131" height="131" transform="translate(18255 2315)" fill="#fff" opacity="0"/>
    <g id="adobe-xd-1" transform="translate(18283 2343.942)">
      <path id="Path_76" data-name="Path 76" d="M62.266,73.773H13.4A13.387,13.387,0,0,1,0,60.374V13.4A13.387,13.387,0,0,1,13.4,0H62.266a13.387,13.387,0,0,1,13.4,13.4V60.374A13.387,13.387,0,0,1,62.266,73.773Z" fill="#ff26be"/>
      <path id="Path_77" data-name="Path 77" d="M162.113,171.665h-46.47A11.464,11.464,0,0,1,104.2,160.222V115.643A11.464,11.464,0,0,1,115.643,104.2h46.44a11.442,11.442,0,0,1,11.443,11.443v44.548a11.425,11.425,0,0,1-11.413,11.474Z" transform="translate(-101.046 -101.046)" fill="#2e001f"/>
      <path id="Path_78" data-name="Path 78" d="M482.483,609.38l8.829,16.961c.157.251.064.505-.191.505h-5.487a.618.618,0,0,1-.663-.409c-2.019-4.162-4.068-8.323-6.18-12.8h-.064c-1.892,4.225-3.974,8.671-5.99,12.833a.608.608,0,0,1-.569.348h-5.2c-.315,0-.348-.251-.188-.442l8.638-16.458-8.353-16.646a.255.255,0,0,1,.188-.442h5.424c.315,0,.442.064.566.348,1.985,4.162,4,8.45,5.9,12.642h.064c1.828-4.162,3.847-8.48,5.8-12.612.157-.251.251-.409.569-.409h5.076c.251,0,.348.191.191.442Zm10.375,5.139c0-7.345,4.888-13.084,12.642-13.084a13.89,13.89,0,0,1,1.64.064v-8.353a.314.314,0,0,1,.315-.315h4.982c.251,0,.315.094.315.251v28.943a22.5,22.5,0,0,0,.157,3.09c0,.191-.064.251-.251.348a18.768,18.768,0,0,1-8.072,1.828c-6.843.027-11.731-4.195-11.728-12.772Zm14.279-8.069a4.739,4.739,0,0,0-1.828-.315c-3.974,0-6.746,3.057-6.746,8.135,0,5.8,2.839,8.135,6.4,8.135a5.91,5.91,0,0,0,2.176-.348V606.45Z" transform="translate(-452.565 -574.858)" fill="#ffd9f2"/>
    </g>
  </g>
</svg>
