<svg xmlns="http://www.w3.org/2000/svg" width="131" height="131" viewBox="0 0 131 131">
  <g id="AdobeAI-icon" transform="translate(-18479 -2315)">
    <rect id="Rectangle_112" data-name="Rectangle 112" width="131" height="131" transform="translate(18479 2315)" fill="#fff" opacity="0"/>
    <g id="Layer_2_1_" transform="translate(18504 2341)">
      <g id="Surfaces">
        <g id="Drawing_Surface">
          <g id="Outline_no_shadow">
            <path id="Path_73" data-name="Path 73" d="M14.41,0H66.965a14.4,14.4,0,0,1,14.41,14.41V64.931a14.4,14.4,0,0,1-14.41,14.41H14.41A14.4,14.4,0,0,1,0,64.931V14.41A14.4,14.4,0,0,1,14.41,0Z" fill="#300"/>
          </g>
        </g>
      </g>
      <g id="Outlined_Mnemonics_Logos" transform="translate(16.814 17.597)">
        <g id="Ai">
          <path id="Path_74" data-name="Path 74" d="M72.209,87.195H59.6l-2.577,7.968a.593.593,0,0,1-.644.475H50c-.373,0-.475-.2-.373-.61L60.545,63.6c.1-.339.2-.712.339-1.119a11.843,11.843,0,0,0,.2-2.2.336.336,0,0,1,.271-.373h8.782c.271,0,.407.1.441.271L82.958,95.095c.1.373,0,.543-.339.543H75.532a.512.512,0,0,1-.542-.373ZM61.563,80.312h8.612c-.2-.712-.475-1.56-.78-2.441-.305-.915-.61-1.9-.915-2.916-.339-1.051-.644-2.068-.983-3.119s-.644-2.034-.915-3.018c-.271-.949-.509-1.831-.746-2.645h-.068a41.631,41.631,0,0,1-1.153,4.374c-.509,1.628-1.017,3.323-1.56,5.018-.475,1.729-.983,3.323-1.492,4.747Z" transform="translate(-49.59 -57.187)" fill="#ff9a00"/>
          <path id="Path_75" data-name="Path 75" d="M161.667,60.411a4.2,4.2,0,0,1-3.018-1.187A4.4,4.4,0,0,1,157.5,56.1a3.989,3.989,0,0,1,1.221-3.018,4.342,4.342,0,0,1,3.018-1.187,4.06,4.06,0,0,1,3.085,1.187,4.661,4.661,0,0,1-.068,6.137A3.987,3.987,0,0,1,161.667,60.411Zm-3.8,29.431V63.733c0-.339.136-.475.441-.475h6.713c.305,0,.441.17.441.475V89.841c0,.373-.136.543-.441.543h-6.646A.474.474,0,0,1,157.869,89.841Z" transform="translate(-120.908 -51.9)" fill="#ff9a00"/>
        </g>
      </g>
    </g>
  </g>
</svg>
