<svg xmlns="http://www.w3.org/2000/svg" width="131" height="131" viewBox="0 0 131 131">
  <g id="AWS-icon" transform="translate(-18479 -1660)">
    <rect id="Rectangle_103" data-name="Rectangle 103" width="131" height="131" transform="translate(18479 1660)" fill="#fff" opacity="0"/>
    <g id="AWS-icon-2" data-name="AWS-icon" transform="translate(18491 1693)">
      <g id="g1865" transform="translate(0 0)">
        <g id="g1863" transform="translate(0 39.974)">
          <path id="path1859" d="M98.687,127.908c-11.742,8.673-28.8,13.277-43.472,13.277A78.645,78.645,0,0,1,2.143,120.948c-1.106-1-.107-2.356,1.213-1.57a107.032,107.032,0,0,0,53.108,14.1,105.979,105.979,0,0,0,40.509-8.28C98.937,124.3,100.615,126.48,98.687,127.908Z" transform="translate(-1.668 -117.019)" fill="#f90" fill-rule="evenodd"/>
          <path id="path1861" d="M260.7,118.513c-1.5-1.927-9.922-.928-13.741-.464-1.142.143-1.321-.857-.286-1.606,6.71-4.711,17.738-3.355,19.023-1.785,1.285,1.606-.357,12.635-6.639,17.917-.964.821-1.892.393-1.463-.678C259.019,128.364,262.2,120.4,260.7,118.513Z" transform="translate(-158.787 -113.192)" fill="#f90" fill-rule="evenodd"/>
        </g>
        <path id="path1857" d="M39.9,24.406a10.8,10.8,0,0,0,.393,3.176,19.1,19.1,0,0,0,1.142,2.57,1.552,1.552,0,0,1,.25.821,1.413,1.413,0,0,1-.678,1.071l-2.249,1.5a1.711,1.711,0,0,1-.928.321,1.642,1.642,0,0,1-1.071-.5,11.041,11.041,0,0,1-1.285-1.677c-.357-.607-.714-1.285-1.106-2.106a13.185,13.185,0,0,1-10.493,4.925,9.779,9.779,0,0,1-7.138-2.57A9.169,9.169,0,0,1,14.1,25.084a9.188,9.188,0,0,1,3.248-7.352c2.177-1.856,5.068-2.784,8.744-2.784a28.259,28.259,0,0,1,3.783.286c1.321.178,2.677.464,4.1.785V13.413c0-2.713-.571-4.6-1.677-5.711C31.16,6.6,29.233,6.061,26.485,6.061a16.239,16.239,0,0,0-3.855.464,28.439,28.439,0,0,0-3.855,1.213,10.241,10.241,0,0,1-1.249.464,2.189,2.189,0,0,1-.571.107c-.5,0-.75-.357-.75-1.106V5.454a2.258,2.258,0,0,1,.25-1.249,2.672,2.672,0,0,1,1-.75,20.548,20.548,0,0,1,4.5-1.606,21.639,21.639,0,0,1,5.568-.678c4.247,0,7.352.964,9.351,2.891,1.963,1.927,2.962,4.854,2.962,8.78V24.406ZM25.414,29.831a11.567,11.567,0,0,0,3.676-.642A7.953,7.953,0,0,0,32.481,26.9a5.665,5.665,0,0,0,1.213-2.284,12.813,12.813,0,0,0,.357-3.105v-1.5a29.806,29.806,0,0,0-3.284-.607,26.893,26.893,0,0,0-3.355-.214c-2.391,0-4.14.464-5.318,1.428a4.975,4.975,0,0,0-1.749,4.1,4.982,4.982,0,0,0,1.321,3.783,4.949,4.949,0,0,0,3.748,1.321Zm28.66,3.855a1.992,1.992,0,0,1-1.356-.357,2.909,2.909,0,0,1-.75-1.392L43.581,4.348a6.252,6.252,0,0,1-.321-1.428.783.783,0,0,1,.857-.892h3.5a1.978,1.978,0,0,1,1.392.357,2.92,2.92,0,0,1,.714,1.392l6,23.627L61.283,3.777a2.5,2.5,0,0,1,.678-1.392,2.455,2.455,0,0,1,1.428-.357h2.855a2.148,2.148,0,0,1,1.428.357,2.4,2.4,0,0,1,.678,1.392L73.989,27.69,80.164,3.777a3.061,3.061,0,0,1,.714-1.392,2.329,2.329,0,0,1,1.392-.357h3.319a.793.793,0,0,1,.892.892,3.559,3.559,0,0,1-.071.571,5.078,5.078,0,0,1-.25.892l-8.6,27.589a2.737,2.737,0,0,1-.75,1.392,2.283,2.283,0,0,1-1.356.357H72.383a2.148,2.148,0,0,1-1.428-.357,2.53,2.53,0,0,1-.678-1.428L64.745,8.916,59.249,31.9a2.786,2.786,0,0,1-.678,1.428,2.212,2.212,0,0,1-1.428.357Zm45.863.964a23.618,23.618,0,0,1-5.5-.642,16.237,16.237,0,0,1-4.1-1.428,2.572,2.572,0,0,1-1.106-1,2.519,2.519,0,0,1-.214-1V28.76c0-.75.286-1.106.821-1.106a2.021,2.021,0,0,1,.642.107c.214.071.535.214.892.357A19.414,19.414,0,0,0,95.3,29.367a21.434,21.434,0,0,0,4.247.428,9.63,9.63,0,0,0,5.211-1.178,3.843,3.843,0,0,0,1.856-3.391,3.476,3.476,0,0,0-.964-2.5,8.955,8.955,0,0,0-3.6-1.856l-5.175-1.606a10.886,10.886,0,0,1-5.711-3.64,8.5,8.5,0,0,1-1.785-5.175,7.943,7.943,0,0,1,.964-3.962,9.177,9.177,0,0,1,2.57-2.927,11.328,11.328,0,0,1,3.712-1.856,15.556,15.556,0,0,1,4.5-.607,17.917,17.917,0,0,1,2.391.143c.821.107,1.57.25,2.32.393.714.178,1.392.357,2.034.571a7.79,7.79,0,0,1,1.5.642,3.086,3.086,0,0,1,1.071.892,1.923,1.923,0,0,1,.321,1.178V6.6c0,.75-.286,1.142-.821,1.142a3.713,3.713,0,0,1-1.356-.428,16.328,16.328,0,0,0-6.853-1.392,9.212,9.212,0,0,0-4.747,1A3.446,3.446,0,0,0,95.3,10.094a3.37,3.37,0,0,0,1.071,2.534,10.661,10.661,0,0,0,3.926,1.963l5.068,1.606a10.855,10.855,0,0,1,5.532,3.426,8.076,8.076,0,0,1,1.642,5,9.175,9.175,0,0,1-.928,4.14A9.6,9.6,0,0,1,109,31.9a11.5,11.5,0,0,1-3.962,2,16.972,16.972,0,0,1-5.1.75Z" transform="translate(-9.746 -1.1)" fill="#252f3e"/>
      </g>
    </g>
  </g>
</svg>
