<svg xmlns="http://www.w3.org/2000/svg" width="131" height="131" viewBox="0 0 131 131">
  <g id="DigitalOcean-icon" transform="translate(-18708 -1660)">
    <rect id="Rectangle_108" data-name="Rectangle 108" width="131" height="131" transform="translate(18708 1660)" fill="#fff" opacity="0"/>
    <g id="DigitalOcean-icon-2" data-name="DigitalOcean-icon" transform="translate(18734 1686)">
      <path id="Path_38" data-name="Path 38" d="M87.735,208.279V193.152H102.87v15.127ZM76.073,219.934V208.279H87.735v11.655Zm0-11.655H66.324v-9.741h9.749Z" transform="translate(-63.566 -145.652)" fill="#0080ff"/>
      <path id="Path_37" data-name="Path 37" d="M104.465,252.015V236.8c16.116,0,28.625-15.949,22.437-32.924a22.746,22.746,0,0,0-13.576-13.572c-16.96-6.139-32.941,6.318-32.941,22.427H65.2c0-25.673,24.842-45.693,51.774-37.284a37.946,37.946,0,0,1,24.795,24.783c8.416,26.967-11.574,51.791-37.3,51.791Z" transform="translate(-65.2 -173.503)" fill="#0080ff"/>
    </g>
  </g>
</svg>
