<svg xmlns="http://www.w3.org/2000/svg" width="131" height="131" viewBox="0 0 131 131">
  <g id="GCP-icon" transform="translate(-18255 -1660)">
    <rect id="Rectangle_102" data-name="Rectangle 102" width="131" height="131" transform="translate(18255 1660)" fill="#fff" opacity="0"/>
    <g id="GCP-icon-2" data-name="GCP-icon" transform="translate(18273 1683)">
      <path id="Path_23" data-name="Path 23" d="M53.474,93.2,36.618,64.006,53.474,34.811H87.185L104.04,64.006,87.185,93.2H53.474" transform="translate(-22.974 -21.771)" fill="#cac9c2"/>
      <path id="Path_24" data-name="Path 24" d="M106.107,104.4a13.138,13.138,0,1,1,13.138-13.139A13.153,13.153,0,0,1,106.107,104.4" transform="translate(-58.189 -48.835)" fill="#fff"/>
      <g id="Group_51" data-name="Group 51" transform="translate(9.383)">
        <path id="Path_25" data-name="Path 25" d="M65.023,3.3A7.217,7.217,0,0,0,59.389.044H17.851A7.217,7.217,0,0,0,12.217,3.3L.08,24.319a6.91,6.91,0,0,0,.753,3.814L9.048,42.179,23.715,16.842H70.07a6.765,6.765,0,0,1,3.391,1.069L65.023,3.3" transform="translate(-0.057 -0.044)" fill="#5072aa"/>
        <path id="Path_26" data-name="Path 26" d="M.6,62.311l-.531.92a6.909,6.909,0,0,0,.753,3.814L9.039,81.091,13.41,73.54.6,62.311" transform="translate(-0.051 -38.956)" fill="#4d6796"/>
        <path id="Path_27" data-name="Path 27" d="M46.124,20.39a2.535,2.535,0,1,1,2.535-2.535,2.538,2.538,0,0,1-2.535,2.535" transform="translate(-27.259 -9.591)" fill="#fff"/>
        <path id="Path_28" data-name="Path 28" d="M153.267,18.168a2.347,2.347,0,1,1-2.347-2.347,2.347,2.347,0,0,1,2.347,2.347Z" transform="translate(-92.866 -9.903)" fill="#fff"/>
      </g>
      <g id="Group_52" data-name="Group 52" transform="translate(51.897 16.798)">
        <path id="Path_29" data-name="Path 29" d="M43.349,22.735,31.019,1.377A6.764,6.764,0,0,0,27.628.307H10.912L25.366,25.785,2.482,66.216a6.608,6.608,0,0,1-2.354,2.25H16.946a7.217,7.217,0,0,0,5.634-3.252L43.349,29.241a7.214,7.214,0,0,0,0-6.506" transform="translate(-0.128 -0.307)" fill="#cc4232"/>
        <path id="Path_30" data-name="Path 30" d="M49.549,2.335,49,1.377A6.761,6.761,0,0,0,45.606.307H28.89l4.351,7.67L49.549,2.335" transform="translate(-18.102 -0.307)" fill="#b23f33"/>
        <path id="Path_31" data-name="Path 31" d="M37.339,157.013a2.535,2.535,0,1,1,2.535-2.535,2.538,2.538,0,0,1-2.535,2.535" transform="translate(-21.798 -95.068)" fill="#fff"/>
        <path id="Path_32" data-name="Path 32" d="M89.934,66.937A2.535,2.535,0,1,1,92.469,64.4a2.538,2.538,0,0,1-2.535,2.535" transform="translate(-54.666 -38.777)" fill="#fff"/>
      </g>
      <g id="Group_53" data-name="Group 53" transform="translate(0 24.275)">
        <path id="Path_33" data-name="Path 33" d="M33.6,43.754,10.4,4.087A6.91,6.91,0,0,1,9.648.273L1.016,15.224a7.217,7.217,0,0,0,0,6.506L21.785,57.7a7.217,7.217,0,0,0,5.634,3.252H52.138a6.611,6.611,0,0,0,2.354-2.25l8.461-14.95H33.6" transform="translate(-0.241 -0.273)" fill="#ecb02a"/>
        <path id="Path_34" data-name="Path 34" d="M134.857,133.4h1.438a6.6,6.6,0,0,0,2.353-2.25l8.462-14.95H138.1l-3.242,17.2" transform="translate(-84.366 -72.717)" fill="#c79732"/>
        <path id="Path_35" data-name="Path 35" d="M71.331,137.044a2.535,2.535,0,1,1,2.535-2.535,2.538,2.538,0,0,1-2.535,2.535" transform="translate(-43.083 -82.576)" fill="#fff"/>
        <path id="Path_36" data-name="Path 36" d="M18.641,46.968a2.535,2.535,0,1,1,2.535-2.535,2.538,2.538,0,0,1-2.535,2.535" transform="translate(-10.156 -26.285)" fill="#fff"/>
      </g>
    </g>
  </g>
</svg>
