<svg xmlns="http://www.w3.org/2000/svg" width="419.999" height="322.534" viewBox="0 0 419.999 322.534">
  <g id="Group_340" data-name="Group 340" transform="translate(-680.001 -1047)">
    <path id="Path_208" data-name="Path 208" d="M636.044,442.652l-.916-.28L293.242,338.089l.94-.47,234.7-117.2.185.383ZM295.5,337.9,634.457,441.291,528.494,221.549Z" transform="translate(424.98 862.744)" fill="#e6e6e6"/>
    <rect id="Rectangle_143" data-name="Rectangle 143" width="85.131" height="67.357" transform="translate(1013.189 1254.011)" fill="#fff"/>
    <path id="Path_209" data-name="Path 209" d="M905.479,602.557H816.987V531.84h88.491Zm-85.131-3.36h81.771v-64H820.347Z" transform="translate(194.521 719.265)" fill="#e6e6e6"/>
    <rect id="Rectangle_144" data-name="Rectangle 144" width="85.131" height="67.357" transform="translate(681.68 1164.98)" fill="#fff"/>
    <path id="Path_210" data-name="Path 210" d="M313.478,439.557H224.987V368.84h88.491Zm-85.131-3.36h81.771v-64H228.347Z" transform="translate(455.014 794.463)" fill="#e6e6e6"/>
    <rect id="Rectangle_145" data-name="Rectangle 145" width="85.131" height="67.357" transform="translate(917.432 1048.68)" fill="#fff"/>
    <path id="Path_211" data-name="Path 211" d="M734.479,226.557H645.987V155.84h88.491Zm-85.131-3.36h81.771v-64H649.347Z" transform="translate(269.766 891.16)" fill="#e6e6e6"/>
    <path id="Path_212" data-name="Path 212" d="M480.541,46.292l21.807,9.646-21.807,9.226Z" transform="translate(468.553 1026.63)" fill="#15ceff"/>
    <rect id="Rectangle_146" data-name="Rectangle 146" width="35.797" height="3.265" transform="translate(706.348 1188.029)" fill="#15ceff"/>
    <rect id="Rectangle_147" data-name="Rectangle 147" width="35.797" height="3.265" transform="translate(706.348 1196.977)" fill="#15ceff"/>
    <rect id="Rectangle_148" data-name="Rectangle 148" width="35.797" height="3.265" transform="translate(706.348 1205.926)" fill="#15ceff"/>
    <circle id="Ellipse_21" data-name="Ellipse 21" cx="4.613" cy="4.613" r="4.613" transform="translate(1036.883 1283.439)" fill="#15ceff"/>
    <circle id="Ellipse_22" data-name="Ellipse 22" cx="4.613" cy="4.613" r="4.613" transform="translate(1051.141 1283.439)" fill="#15ceff"/>
    <circle id="Ellipse_23" data-name="Ellipse 23" cx="4.613" cy="4.613" r="4.613" transform="translate(1065.4 1283.439)" fill="#15ceff"/>
    <path id="Path_213" data-name="Path 213" d="M508.242,495.883a6.579,6.579,0,0,0-3.705-9.383l-1.085-14.995-9.273-1.563,1.829,21.154a6.615,6.615,0,0,0,12.234,4.787Z" transform="translate(336.563 749.169)" fill="#a0616a"/>
    <path id="Path_214" data-name="Path 214" d="M344.37,546.528h8.6l4.092-33.178h-12.7Z" transform="translate(528.473 814.668)" fill="#a0616a"/>
    <path id="Path_215" data-name="Path 215" d="M565.44,723.424h16.94a10.8,10.8,0,0,1,10.8,10.794v.351H565.441Z" transform="translate(305.207 634.965)" fill="#2f2e41"/>
    <path id="Path_216" data-name="Path 216" d="M294.253,546.528h8.6l4.092-33.178H294.252Z" transform="translate(550.523 814.668)" fill="#a0616a"/>
    <path id="Path_217" data-name="Path 217" d="M515.323,723.424h16.94a10.8,10.8,0,0,1,10.8,10.794v.351H515.324Z" transform="translate(327.26 634.965)" fill="#2f2e41"/>
    <path id="Path_218" data-name="Path 218" d="M286.917,313l-4.209,23.775,5.613,110.854h12.631l6.974-54.526,2.846-41.595,4.489,96.121,13.051.942,7.549-55.095,1.923-54.947L335.757,313Z" transform="translate(555.604 902.827)" fill="#2f2e41"/>
    <path id="Path_219" data-name="Path 219" d="M538.178,339.017l18.944,3.508,5.262,67.7s-23.153,10.524-31.572,1.4S538.178,339.017,538.178,339.017Z" transform="translate(321.533 807.946)" fill="#ccc"/>
    <path id="Path_220" data-name="Path 220" d="M595.694,355.454,577.8,345.281l-2.456,46.657s-.7,54.726,13.331,54.726l10.524-3.508-5.613-45.6Z" transform="translate(300.85 804.803)" fill="#2f2e41"/>
    <path id="Path_221" data-name="Path 221" d="M507.144,348.488l21.4-9.472L531,380.061s7.016,54.725-15.435,56.83c0,0-6.314.7-9.121-4.21l4.21-40.693Z" transform="translate(331.168 807.702)" fill="#2f2e41"/>
    <path id="Path_222" data-name="Path 222" d="M502.252,358.036l-4.21-2.1s-2.1,0-2.806,1.4-9.477,42.1-9.477,42.1l5.37,38,10.422-5.021-2.168-31.748Z" transform="translate(340.27 800.202)" fill="#2f2e41"/>
    <path id="Path_223" data-name="Path 223" d="M597.19,503.666a6.579,6.579,0,0,1,2.952-9.646l-.1-15.034,9.121-2.291-.152,21.233a6.615,6.615,0,0,1-11.817,5.739Z" transform="translate(291.705 746.109)" fill="#a0616a"/>
    <path id="Path_224" data-name="Path 224" d="M596.8,364.15l7.718-.7s2.806,1.011,3.508,9.626.7,30.23.7,30.23l2.1,38.724H598.907l-3.508-39.29Z" transform="translate(292.025 796.82)" fill="#2f2e41"/>
    <circle id="Ellipse_24" data-name="Ellipse 24" cx="16.484" cy="16.484" r="16.484" transform="translate(855.035 1109.379)" fill="#a0616a"/>
    <path id="Path_225" data-name="Path 225" d="M549.284,286.519l-.228-3.914c-.053-.912.228-2.184,1.14-2.118.775.056,2.5.359,2.73.115.858-.914,2.627.019,3.552-.826.388-.354.561-.979,1.066-1.121a1.444,1.444,0,0,1,1,.228,6.337,6.337,0,0,0,2.622.8,2.592,2.592,0,0,0,2.348-1.183,1.347,1.347,0,0,1,.354-.511,1.007,1.007,0,0,1,.638-.1l2.841.185a10.557,10.557,0,0,0-3.117-8.236,17.485,17.485,0,0,0-4.7-3.043q-2.888-1.394-5.89-2.529a17.111,17.111,0,0,0-6.827-1.453,6.835,6.835,0,0,0-5.82,3.34,4.1,4.1,0,0,1-1.843-1.659,1.51,1.51,0,0,0,.557,2.249l-2.573-.991c-.5.8,1,1.767.6,2.629a1.421,1.421,0,0,1-.532.525,10.652,10.652,0,0,0-2.911,2.781,12.713,12.713,0,0,0-1.644,5.379c-.565,4.169-.643,8.834,2.026,12.085.3.369,4.575,6.6,5.013,6.788,1.482.634.194-1.369,1.385-.282.934.852.018-2.951,1.274-2.331a2.76,2.76,0,0,0,2.971-.467c.386-.4-.111-2.106-.677-3.648a1.913,1.913,0,0,1,1.851-2.573A8.3,8.3,0,0,0,549.284,286.519Z" transform="translate(319.779 842.791)" fill="#2f2e41"/>
  </g>
</svg>
