<svg xmlns="http://www.w3.org/2000/svg" width="419.654" height="298.12" viewBox="0 0 419.654 298.12">
  <g id="Group_339" data-name="Group 339" transform="translate(-216.018 -593.88)">
    <rect id="Rectangle_120" data-name="Rectangle 120" width="419.467" height="274.113" transform="translate(216.205 594.128)" fill="#e6e6e6"/>
    <g id="Group_338" data-name="Group 338" transform="translate(216.018 593.88)">
      <rect id="Rectangle_121" data-name="Rectangle 121" width="157.57" height="161.912" transform="translate(38.783 37.784)" fill="#fff"/>
      <rect id="Rectangle_122" data-name="Rectangle 122" width="157.57" height="196.652" transform="translate(238.286 40.924)" fill="#fff"/>
      <rect id="Rectangle_123" data-name="Rectangle 123" width="419.467" height="18.543" fill="#15ceff"/>
      <circle id="Ellipse_14" data-name="Ellipse 14" cx="3.437" cy="3.437" r="3.437" transform="translate(10.344 6.043)" fill="#e6e6e6"/>
      <circle id="Ellipse_15" data-name="Ellipse 15" cx="3.437" cy="3.437" r="3.437" transform="translate(23.389 6.043)" fill="#e6e6e6"/>
      <circle id="Ellipse_16" data-name="Ellipse 16" cx="3.437" cy="3.437" r="3.437" transform="translate(36.434 6.043)" fill="#e6e6e6"/>
      <path id="Path_168" data-name="Path 168" d="M894.025,331.085h-.955V304.936A15.134,15.134,0,0,0,877.937,289.8h-55.4A15.134,15.134,0,0,0,807.4,304.936V448.387a15.134,15.134,0,0,0,15.134,15.134h55.4a15.134,15.134,0,0,0,15.134-15.134V349.7h.955Z" transform="translate(-532.909 -239.599)" fill="#3f3d56"/>
      <path id="Path_169" data-name="Path 169" d="M880.1,296.15h-7.231a5.37,5.37,0,0,1-4.971,7.4H836.163a5.37,5.37,0,0,1-4.972-7.4h-6.754a11.3,11.3,0,0,0-11.3,11.3V450.693a11.3,11.3,0,0,0,11.3,11.3H880.1a11.3,11.3,0,0,0,11.3-11.3V307.452A11.3,11.3,0,0,0,880.1,296.15Z" transform="translate(-535.085 -242.039)" fill="#fff"/>
      <rect id="Rectangle_124" data-name="Rectangle 124" width="109.52" height="4.996" transform="translate(62.916 137.519)" fill="#e6e6e6"/>
      <rect id="Rectangle_125" data-name="Rectangle 125" width="109.52" height="4.996" transform="translate(62.916 153.355)" fill="#15ceff"/>
      <rect id="Rectangle_126" data-name="Rectangle 126" width="109.52" height="4.996" transform="translate(62.916 169.191)" fill="#e6e6e6"/>
      <rect id="Rectangle_127" data-name="Rectangle 127" width="63.936" height="4.996" transform="translate(289.019 148.22)" fill="#e6e6e6"/>
      <rect id="Rectangle_128" data-name="Rectangle 128" width="63.936" height="4.996" transform="translate(289.019 163.448)" fill="#e6e6e6"/>
      <rect id="Rectangle_129" data-name="Rectangle 129" width="63.936" height="4.996" transform="translate(289.019 178.675)" fill="#e6e6e6"/>
      <rect id="Rectangle_130" data-name="Rectangle 130" width="10.656" height="10.656" transform="translate(356.46 243.475) rotate(90)" fill="#3f3d56"/>
      <rect id="Rectangle_131" data-name="Rectangle 131" width="10.656" height="10.656" transform="translate(342.493 243.475) rotate(90)" fill="#15ceff"/>
      <rect id="Rectangle_132" data-name="Rectangle 132" width="10.656" height="10.656" transform="translate(326.01 243.475) rotate(90)" fill="#3f3d56"/>
      <rect id="Rectangle_133" data-name="Rectangle 133" width="10.656" height="10.656" transform="translate(309.527 243.475) rotate(90)" fill="#3f3d56"/>
      <rect id="Rectangle_134" data-name="Rectangle 134" width="10.656" height="10.656" transform="translate(293.045 243.475) rotate(90)" fill="#3f3d56"/>
      <rect id="Rectangle_135" data-name="Rectangle 135" width="35.52" height="35.52" transform="translate(303.008 84.48)" fill="#15ceff"/>
      <path id="Path_170" data-name="Path 170" d="M503.047,472.783l-.46.919-1.379-6.9s-1.839-7.356,1.839-7.356,2.759,7.356,2.759,7.356v5.057Z" transform="translate(-403.479 -304.771)" fill="#a0616a"/>
      <path id="Path_171" data-name="Path 171" d="M599.945,471.265l.46.92,1.379-6.9s1.839-7.356-1.839-7.356-2.759,7.356-2.759,7.356v5.058Z" transform="translate(-442.409 -304.177)" fill="#a0616a"/>
      <path id="Path_172" data-name="Path 172" d="M378.839,358.94l-5.517,34.023,2.758,33.1,6.437-2.758-.919-24.828,6.437-19.77,1.379,23.448-2.758,24.367,8.276.92,5.977-50.115-.46-17.011Z" transform="translate(-259.968 -141.69)" fill="#2f2e41"/>
      <path id="Path_173" data-name="Path 173" d="M535.094,665.544l-3.218,5.057v11.3a1.37,1.37,0,0,0,1.151,1.353c1.578.259,4.324.443,5.285-1.159,1.379-2.3.46-7.356.46-7.356s1.839-3.678.92-6.437-1.839-3.218-1.839-3.218Z" transform="translate(-416.091 -385.306)" fill="#2f2e41"/>
      <path id="Path_174" data-name="Path 174" d="M555.922,672.956l.92,1.379s1.379,1.379.46,2.3a17.973,17.973,0,0,0-1.839,2.3s-5.057,1.379-5.057-.46V672.5Z" transform="translate(-423.57 -388.12)" fill="#2f2e41"/>
      <circle id="Ellipse_17" data-name="Ellipse 17" cx="6.095" cy="6.095" r="6.095" transform="translate(124.628 169.841)" fill="#a0616a"/>
      <path id="Path_175" data-name="Path 175" d="M394.9,291.867l-.46,8.736,8.276.46-.46-8.736Z" transform="translate(-268.286 -114.14)" fill="#a0616a"/>
      <path id="Path_176" data-name="Path 176" d="M551.262,509.82l-1.305-3.188s-6.051-2.329-7.89-.03l-.92,2.759-7.356-1.839-4.138,9.2,3.678,26.207s9.655,12.414,22.529.46l3.678-24.827-2.758-9.655Z" transform="translate(-415.446 -323.208)" fill="#575a89"/>
      <path id="Path_177" data-name="Path 177" d="M417.049,293.875l.919-1.839,9.2-5.517,5.612-16.611,4.342,1.861-4.9,19.808-13.333,12.413Z" transform="translate(-277.588 -105.837)" fill="#575a89"/>
      <path id="Path_178" data-name="Path 178" d="M368.888,292.175l-.919-.919-9.655-5.977-6.9-13.793-5.517,1.839,5.977,17.011,14.713,11.954Z" transform="translate(-248.804 -106.415)" fill="#575a89"/>
      <path id="Path_179" data-name="Path 179" d="M557.219,477.641l1-.5-1.495-.5v-.5s-7.474-2.989-8.47,1.993a10.015,10.015,0,0,0,0,11.958v1.495l7.972,1,1-2.989S562.2,480.631,557.219,477.641Z" transform="translate(-421.972 -310.99)" fill="#2f2e41"/>
      <path id="Path_180" data-name="Path 180" d="M265.552,565.16l-1.771.886s-7.085,3.247-5.019,5.019,7.676-1.771,7.676-1.771l1.181-1.476Z" transform="translate(-41.465 -346.022)" fill="#ffb8b8"/>
      <path id="Path_181" data-name="Path 181" d="M182.815,359.1l-5.475,36.754-8.267,25.684-4.428-2.066,4.133-35.132L156.969,374.3l.886-14.761Z" transform="translate(91.363 -141.75)" fill="#2f2e41"/>
      <path id="Path_182" data-name="Path 182" d="M321.657,662.648s5.019-2.657,5.314,1.181l-.59,3.838s1.771,6.79-4.133,5.314-1.771-5.9-1.771-5.9Z" transform="translate(-65.969 -384.041)" fill="#2f2e41"/>
      <path id="Path_183" data-name="Path 183" d="M315.656,583.72l-3.838,3.247s0,20.076,2.657,23.028,19.485,18.009,20.076,18.6,3.248-5.9,3.248-5.9l-15.942-18.6,1.181-11.514Z" transform="translate(-63.49 -354.416)" fill="#2f2e41"/>
      <path id="Path_184" data-name="Path 184" d="M349.216,645.044s4.724-.886,4.724,2.362a71.484,71.484,0,0,0,.59,7.676s1.181,10.333-2.657,8.857-5.314-11.809-5.314-11.809a4.4,4.4,0,0,1,1.771-2.067C349.511,649.473,349.216,645.044,349.216,645.044Z" transform="translate(-77.088 -377.656)" fill="#2f2e41"/>
      <path id="Path_185" data-name="Path 185" d="M166.958,288.424l.886,10.924-2.362,4.133-6.5-6.2-.591-8.266Z" transform="translate(91.197 -112.86)" fill="#ffb8b8"/>
      <circle id="Ellipse_18" data-name="Ellipse 18" cx="7.085" cy="7.085" r="7.085" transform="translate(245.794 165.145)" fill="#ffb8b8"/>
      <path id="Path_186" data-name="Path 186" d="M162.971,300.318l2.952-8.561,5.314,5.9,9.743,37.494-7.381,4.429-3.247-4.724-.591,6.2-14.467-2.952-1.181-39.561,2.95-4.156Z" transform="translate(92.492 -114.622)" fill="#d0cde1"/>
      <path id="Path_187" data-name="Path 187" d="M153.959,343.866l-1.771-47.827-3.838,2.952-7.086,4.723,4.724,16.828,1.476,17.714Z" transform="translate(98.048 -116.282)" fill="#2f2e41"/>
      <path id="Path_188" data-name="Path 188" d="M132.491,308.707l-2.067-.3-5.9,17.418L112.71,340.592l4.429,4.723,13.58-13.285,5.019-10.923Z" transform="translate(109.368 -120.976)" fill="#2f2e41"/>
      <path id="Path_189" data-name="Path 189" d="M350.791,565.595l-.4,1.939s-1.843,7.573.828,7.049,3.367-7.122,3.367-7.122l-.427-1.842Z" transform="translate(-78.299 -346.228)" fill="#ffb8b8"/>
      <path id="Path_190" data-name="Path 190" d="M172.26,290.983l14.632,5.793-1.771,17.714,3.543,19.485-3.543,3.837-13.1-44.32Z" transform="translate(85.506 -114.281)" fill="#2f2e41"/>
      <path id="Path_191" data-name="Path 191" d="M313.81,468.245l2.08-1.04v1.04l1.387-.693v1.733s5.2,3.813,4.16,8.319-1.04,4.853-1.04,4.853-1.315-8.57-6.514-7.183-5.618,1.637-7,5.45l-.376,1.636S300.638,468.938,313.81,468.245Z" transform="translate(-60.567 -307.816)" fill="#2f2e41"/>
      <path id="Path_192" data-name="Path 192" d="M191.217,300.322h2.362l3.838,20.666V339l-4.723-.886-3.838-27.161Z" transform="translate(78.905 -117.828)" fill="#2f2e41"/>
      <rect id="Rectangle_136" data-name="Rectangle 136" width="87.049" height="60.491" transform="translate(155.901 224.59)" fill="#15ceff"/>
      <path id="Path_193" data-name="Path 193" d="M217.258,595.148A18.443,18.443,0,1,0,235.7,613.59,18.443,18.443,0,0,0,217.258,595.148Zm0,5.533a5.533,5.533,0,1,1-5.533,5.533,5.533,5.533,0,0,1,5.533-5.533Zm0,26.635a13.435,13.435,0,0,1-11.065-5.905c.089-3.688,7.377-5.719,11.065-5.719s10.977,2.03,11.066,5.719a13.457,13.457,0,0,1-11.066,5.905Z" transform="translate(-17.9 -358.755)" fill="#fff"/>
      <rect id="Rectangle_137" data-name="Rectangle 137" width="109.182" height="62.656" transform="translate(62.977 55.126)" fill="#e6e6e6"/>
      <path id="Path_194" data-name="Path 194" d="M961.123,490.255l.506-3.263s2.949-6.7.618-7.064-4.275,6.02-4.275,6.02l.853,6.815Z" transform="translate(-590.071 -312.762)" fill="#ffb8b8"/>
      <path id="Path_195" data-name="Path 195" d="M828.687,308.915l-20.832-4.184-2.421-15.173-6.132-.473.3,19.617,18.1,9.49Z" transform="translate(-433.772 -113.291)" fill="#575a89"/>
      <path id="Path_196" data-name="Path 196" d="M828.687,308.915l-20.832-4.184-2.421-15.173-6.132-.473.3,19.617,18.1,9.49Z" transform="translate(-433.772 -113.291)" opacity="0.2"/>
      <rect id="Rectangle_138" data-name="Rectangle 138" width="63.936" height="4.996" transform="translate(402.179 173.538) rotate(180)" fill="#15ceff"/>
      <path id="Path_197" data-name="Path 197" d="M954.183,488.429l0-3.3s1.9-7.073-.463-7.076-3.31,6.6-3.31,6.6l1.879,6.606Z" transform="translate(-587.202 -312.038)" fill="#ffb8b8"/>
      <path id="Path_198" data-name="Path 198" d="M994.416,498.31l2.858-.7a7.358,7.358,0,0,0,7.222-8.816h0a9.618,9.618,0,0,0-9.606-9.63h0a9.618,9.618,0,0,0-9.629,9.606h0a7.643,7.643,0,0,0,9.154,9.537Z" transform="translate(-600.319 -312.543)" fill="#2f2e41"/>
      <path id="Path_199" data-name="Path 199" d="M818.254,379.155l2.327,25.475,4.214,25.006,7.076.009-.912-24.53-3.736-29.722Z" transform="translate(-440.966 -147.936)" fill="#2f2e41"/>
      <path id="Path_200" data-name="Path 200" d="M978.418,665.9l-4.721,2.824s-7.548.934-6.136,3.294,17.924.966,17.925.023-.464-6.133-1.407-6.134Z" transform="translate(-593.646 -385.617)" fill="#2f2e41"/>
      <path id="Path_201" data-name="Path 201" d="M995.72,580.284s-.133,3.642-3.442,9.3l.45,17.454,16.954,21.72-6.139,5.181-20.726-23.612-5.153-28.309,6.612-6.6Z" transform="translate(-597.548 -351.266)" fill="#2f2e41"/>
      <path id="Path_202" data-name="Path 202" d="M1022.83,661.394s5.659.951,4.713,3.308-3.318,13.2-9.449,11.781c0,0-2.83,0-1.884-1.889a34.155,34.155,0,0,1,1.891-3.3l.008-6.132Z" transform="translate(-612.108 -383.905)" fill="#2f2e41"/>
      <circle id="Ellipse_19" data-name="Ellipse 19" cx="7.076" cy="7.076" r="7.076" transform="translate(383.96 172.05)" fill="#ffb8b8"/>
      <path id="Path_203" data-name="Path 203" d="M841.1,301.647l-.01,8.019-7.547-.009.953-8.017Z" transform="translate(-446.772 -117.948)" fill="#ffb8b8"/>
      <path id="Path_204" data-name="Path 204" d="M980.128,515l2.287-.562,7.147.574s3.769,3.778,3.3,4.721S990,543.79,990,543.79l4.225,16.515-15.1.924-7.546-.953,1.452-29.716s-3.292-8.023.957-10.376A18.583,18.583,0,0,0,980.128,515Z" transform="translate(-595.237 -326.743)" fill="#575a89"/>
      <path id="Path_205" data-name="Path 205" d="M824.575,303.51l-21.225-.97-4.7-14.629-6.133.463,3.277,19.344,19.332,6.628Z" transform="translate(-431.196 -112.797)" fill="#575a89"/>
      <circle id="Ellipse_20" data-name="Ellipse 20" cx="4.565" cy="4.565" r="4.565" transform="translate(400.128 164.973)" fill="#2f2e41"/>
      <path id="Path_206" data-name="Path 206" d="M1009.847,476.671a4.563,4.563,0,0,1,5.463-4.47,4.563,4.563,0,1,0-2.846,8.6,4.562,4.562,0,0,1-2.618-4.13Z" transform="translate(-609.366 -309.534)" fill="#2f2e41"/>
      <path id="Path_207" data-name="Path 207" d="M995.457,483.154,989.3,482.02l-4.733,2.966a7.18,7.18,0,0,0-3.307,7.007l4.74-1.2,1.062-2.662,1.264,2.072,5.129,8.967,5.192-2.824,3.308-5.185Z" transform="translate(-598.89 -313.635)" fill="#2f2e41"/>
      <rect id="Rectangle_139" data-name="Rectangle 139" width="1.24" height="125.883" transform="translate(62.668 55.671) rotate(-60.15)" fill="#fff"/>
      <rect id="Rectangle_140" data-name="Rectangle 140" width="125.883" height="1.24" transform="matrix(0.867, -0.498, 0.498, 0.867, 62.664, 117.247)" fill="#fff"/>
      <rect id="Rectangle_141" data-name="Rectangle 141" width="1.241" height="50.007" transform="translate(302.831 84.871) rotate(-45)" fill="#fff"/>
      <rect id="Rectangle_142" data-name="Rectangle 142" width="50.007" height="1.241" transform="translate(302.831 119.354) rotate(-45)" fill="#fff"/>
    </g>
  </g>
</svg>
