<svg xmlns="http://www.w3.org/2000/svg" width="414.916" height="323" viewBox="0 0 414.916 323">
  <g id="Group_337" data-name="Group 337" transform="translate(-709 -172)">
    <circle id="Ellipse_3" data-name="Ellipse 3" cx="60.195" cy="60.195" r="60.195" transform="translate(832.552 238.203)" fill="#15ceff"/>
    <path id="Path_115" data-name="Path 115" d="M471.62,341.421a60.659,60.659,0,1,1,60.659-60.659A60.727,60.727,0,0,1,471.62,341.421Zm0-120.391a59.732,59.732,0,1,0,59.732,59.732A59.733,59.733,0,0,0,471.62,221.03Z" transform="translate(428.596 7)" fill="#3f3d56"/>
    <path id="Path_116" data-name="Path 116" d="M487.489,305.159H127.961v-204.2H487.489Zm-358.641-.926H486.6V101.883H128.848Z" transform="translate(587.67 71.043)" fill="#3f3d56"/>
    <rect id="Rectangle_117" data-name="Rectangle 117" width="85" height="8" transform="translate(727 189)" fill="#f2f2f2"/>
    <rect id="Rectangle_118" data-name="Rectangle 118" width="83" height="8" transform="translate(844.47 189)" fill="#f2f2f2"/>
    <rect id="Rectangle_119" data-name="Rectangle 119" width="83" height="8" transform="translate(961.814 189)" fill="#f2f2f2"/>
    <path id="Path_117" data-name="Path 117" d="M248.309,135.218H164.961v-9.261h83.348Zm-82.422-.926h81.5v-7.409h-81.5Z" transform="translate(567.803 57.619)" fill="#3f3d56"/>
    <path id="Path_118" data-name="Path 118" d="M515.309,135.218H431.961v-9.261h83.348Zm-82.422-.926h81.5v-7.409h-81.5Z" transform="translate(417.65 57.619)" fill="#3f3d56"/>
    <path id="Path_119" data-name="Path 119" d="M782.308,135.218H698.961v-9.261h83.347Zm-82.421-.926h81.5v-7.409h-81.5Z" transform="translate(268.59 57.619)" fill="#3f3d56"/>
    <path id="Path_120" data-name="Path 120" d="M393.5,417.991,422.672,361.5l7.872,4.63L397.2,420.306Z" transform="translate(496.667 -22.264)" fill="#3f3d56"/>
    <path id="Path_121" data-name="Path 121" d="M482.813,594.268s5.377,4.224,5.987-4.814a10.368,10.368,0,0,1,3.772-7.45,8.252,8.252,0,0,1,10.152-.7,8.743,8.743,0,0,1,4.388,8.578,13.183,13.183,0,0,1-6.59,10.3c-4.18,2.481-10.778,4.349-17.709-1.75C482.813,598.436,478.646,593.805,482.813,594.268Z" transform="translate(391.4 -186.296)" fill="#15ceff"/>
    <circle id="Ellipse_4" data-name="Ellipse 4" cx="11.236" cy="11.236" r="11.236" transform="translate(912.966 251.814)" fill="#ffb8b8"/>
    <path id="Path_122" data-name="Path 122" d="M583.586,305.755s2.957,15.376,1.774,18.333,16.559-1.183,16.559-1.183-3.548-15.376-2.957-18.924S583.586,305.755,583.586,305.755Z" transform="translate(334.581 -37.393)" fill="#ffb8b8"/>
    <path id="Path_123" data-name="Path 123" d="M413.479,323.215l1.183,15.967,5.87,25.076,1.818,6.859,2.957-10.645-2.957-24.247-1-10.916Z" transform="translate(486.047 -1.685)" fill="#ffb8b8"/>
    <path id="Path_124" data-name="Path 124" d="M663.884,419.063v16.559s-1.774,21.29-5.322,26.612-4.731-21.29-4.731-21.29l2.78-19.516Z" transform="translate(295.792 -99.895)" fill="#ffb8b8"/>
    <path id="Path_125" data-name="Path 125" d="M560.125,527.863s-2.957,3.548-.591,39.623-1.182,62.1,6.505,62.1c0,0-2.366,7.688,4.14,8.279s9.462,1.183,10.053-.591,1.774-10.054,0-10.054c0,0,0,2.366,1.183-7.1s1.183-54.407,4.14-60.321l9.462,21.881s0,10.053,1.774,14.785,4.731,31.935,4.731,31.935l-.591,4.14s14.193,2.366,14.785,0,.591-5.914,0-7.1-.591-1.183.591-3.548a7.162,7.162,0,0,0,.591-5.914c-.591-1.774-.591-40.214-.591-40.214s-1.183-46.719-8.279-49.085S560.125,527.863,560.125,527.863Z" transform="translate(347.57 -157.359)" fill="#2f2e41"/>
    <path id="Path_126" data-name="Path 126" d="M565.907,757.513l-4.731,8.279s-7.392-2.661-5.914,4.14a118.171,118.171,0,0,0,21.585-.3s2.957,1.183,3.548-.591-1.478-7.984-3.253-7.984S565.907,757.513,565.907,757.513Z" transform="translate(350.267 -281.743)" fill="#2f2e41"/>
    <path id="Path_127" data-name="Path 127" d="M648.662,749.853s-4.731,10.645-2.957,11.236,17.742,2.957,18.924,3.548,7.1,1.183,7.688-2.365-2.957-4.731-2.957-4.731-6.505-1.183-8.279-7.1S648.662,749.853,648.662,749.853Z" transform="translate(300.124 -276.449)" fill="#2f2e41"/>
    <path id="Path_128" data-name="Path 128" d="M581.843,340.909s-15.967-2.957-19.516,0-18.333,8.871-18.333,11.828,7.688,31.935,7.688,31.935-4.14,43.762,0,44.945,11.236-2.366,19.516,1.774,31.935-3.548,31.935-3.548-8.871-37.848-6.505-44.945,4.14-31.343,4.14-31.343S590.713,340.909,581.843,340.909Z" transform="translate(355.702 -57.212)" fill="#8985a8"/>
    <path id="Path_129" data-name="Path 129" d="M540.99,364.145l-4.14,1.183s-8.871,27.8-5.323,28.978a126.884,126.884,0,0,0,14.785,3.548C547.5,397.854,540.99,364.145,540.99,364.145Z" transform="translate(363.98 -70.38)" fill="#8985a8"/>
    <path id="Path_130" data-name="Path 130" d="M646.167,357.759l9.462,3.548s12.419,23.064,9.462,26.021-15.967,5.914-15.967,5.914Z" transform="translate(299.829 -66.949)" fill="#8985a8"/>
    <path id="Path_131" data-name="Path 131" d="M580.775,267.642a6.351,6.351,0,0,0-2.811.124,7.33,7.33,0,0,0-2,1.31,23.38,23.38,0,0,1-3.415,2.263,7.969,7.969,0,0,0-2.657,1.863,5.657,5.657,0,0,0-.75,1.42,17.012,17.012,0,0,0-.894,9.259,4.253,4.253,0,0,0,.394,1.271c.615,1.132,1.972,1.579,3.116,2.172,2.171,1.127,3.817,3.025,5.6,4.7a10.947,10.947,0,0,0,2.212,1.7c2.541,1.385,5.646.933,8.5.444a1.531,1.531,0,0,0,1.528-1.546l2.251-10.125a16.519,16.519,0,0,0,.577-4.6,13.1,13.1,0,0,0-3.291-7.608C587.03,268.257,583.523,267.933,580.775,267.642Z" transform="translate(343.121 -18.469)" fill="#2f2e41"/>
    <ellipse id="Ellipse_5" data-name="Ellipse 5" cx="17" cy="1.5" rx="17" ry="1.5" transform="translate(863.51 486.757)" fill="#15ceff"/>
    <ellipse id="Ellipse_6" data-name="Ellipse 6" cx="16.5" cy="0.5" rx="16.5" ry="0.5" transform="translate(858.728 489.757)" fill="#15ceff"/>
    <ellipse id="Ellipse_7" data-name="Ellipse 7" cx="8.798" cy="0.503" rx="8.798" ry="0.503" transform="translate(851.581 482.882)" fill="#15ceff"/>
    <ellipse id="Ellipse_8" data-name="Ellipse 8" cx="8.798" cy="0.503" rx="8.798" ry="0.503" transform="translate(881.848 493.995)" fill="#15ceff"/>
    <path id="Path_141" data-name="Path 141" d="M369.778,496.972l-93.387,19.684a10.412,10.412,0,0,1-12.322-8.031L248.044,432.6a10.412,10.412,0,0,1,8.032-12.322l93.387-19.684a10.412,10.412,0,0,1,12.322,8.032L377.81,484.65A10.412,10.412,0,0,1,369.778,496.972Z" transform="translate(461.18 -136.116)" fill="#fff"/>
    <path id="Path_142" data-name="Path 142" d="M369.778,496.972l-93.387,19.684a10.412,10.412,0,0,1-12.322-8.031L248.044,432.6a10.412,10.412,0,0,1,8.032-12.322l93.387-19.684a10.412,10.412,0,0,1,12.322,8.032L377.81,484.65A10.412,10.412,0,0,1,369.778,496.972Zm-113.45-75.5a9.187,9.187,0,0,0-7.087,10.872l16.025,76.026a9.187,9.187,0,0,0,10.872,7.087l93.387-19.684a9.187,9.187,0,0,0,7.087-10.872l-16.025-76.026a9.187,9.187,0,0,0-10.872-7.087Z" transform="translate(461.18 -136.116)" fill="#3f3d56"/>
    <path id="Path_411" data-name="Path 411" d="M373.28,439.609l-47.131,9.934a1.671,1.671,0,0,1-1.976-1.14,1.609,1.609,0,0,1,1.223-1.991L373.373,436.3c1.873,1.056,1.281,3.019-.093,3.309Z" transform="translate(431.559 -150.047)" fill="#ccc"/>
    <path id="Path_412" data-name="Path 412" d="M376.128,453.122,329,463.057a1.671,1.671,0,0,1-1.976-1.14,1.609,1.609,0,0,1,1.223-1.991l47.977-10.113c1.873,1.056,1.281,3.019-.093,3.309Z" transform="translate(430.455 -155.299)" fill="#ccc"/>
    <path id="Path_413" data-name="Path 413" d="M302.471,469.621l-14.384,3.032a1.812,1.812,0,0,1-2.145-1.4l-3.578-16.974a1.812,1.812,0,0,1,1.4-2.145l14.384-3.032a1.813,1.813,0,0,1,2.145,1.4l3.578,16.974a1.812,1.812,0,0,1-1.4,2.145Z" transform="translate(447.785 -155.012)" fill="#ccc"/>
    <path id="Path_414" data-name="Path 414" d="M366,480.837,294.07,496a1.671,1.671,0,0,1-1.976-1.14,1.609,1.609,0,0,1,1.223-1.991l72.777-15.34c1.873,1.056,1.281,3.019-.093,3.309Z" transform="translate(444.012 -166.074)" fill="#ccc"/>
    <path id="Path_415" data-name="Path 415" d="M368.849,494.354l-71.93,15.162a1.671,1.671,0,0,1-1.976-1.14,1.609,1.609,0,0,1,1.223-1.991l72.777-15.34c1.873,1.056,1.281,3.019-.093,3.309Z" transform="translate(442.906 -171.328)" fill="#ccc"/>
    <path id="Path_416" data-name="Path 416" d="M371.7,507.862l-71.931,15.162a1.671,1.671,0,0,1-1.976-1.14,1.609,1.609,0,0,1,1.223-1.991l72.777-15.34c1.873,1.056,1.281,3.019-.093,3.309Z" transform="translate(441.803 -176.578)" fill="#ccc"/>
    <path id="Path_417" data-name="Path 417" d="M374.545,521.378,302.615,536.54a1.671,1.671,0,0,1-1.976-1.14,1.61,1.61,0,0,1,1.223-1.991l72.777-15.34c1.873,1.056,1.281,3.019-.093,3.309Z" transform="translate(440.695 -181.832)" fill="#ccc"/>
    <path id="Path_418" data-name="Path 418" d="M377.392,534.888l-71.931,15.161a1.671,1.671,0,0,1-1.976-1.14,1.609,1.609,0,0,1,1.223-1.991l72.777-15.34c1.873,1.056,1.281,3.019-.093,3.309Z" transform="translate(439.59 -187.083)" fill="#ccc"/>
    <path id="Path_143" data-name="Path 143" d="M417.162,473.036a6.448,6.448,0,0,0-.418.924L387.3,481.268l-5.123-5.3-9.009,6.686,8.157,10.263A4.894,4.894,0,0,0,387,494.4l31.953-13.057a6.422,6.422,0,1,0-1.8-8.309Z" transform="translate(409.245 -163.053)" fill="#a0616a"/>
    <path id="Path_144" data-name="Path 144" d="M275.326,538.193a6.572,6.572,0,0,0,3.9-9.292l20.265-56.325-14.073-2.494-15.494,56.15a6.608,6.608,0,0,0,5.4,11.961Z" transform="translate(453.84 -163.2)" fill="#a0616a"/>
    <path id="Path_145" data-name="Path 145" d="M306.062,472.932l-13.9-5.333a2.947,2.947,0,0,1-1.511-4.2l7.289-12.924a8.184,8.184,0,1,1,15.264,5.91l-3.215,14.437a2.947,2.947,0,0,1-3.932,2.11Z" transform="translate(444.697 -153.528)" fill="#15ceff"/>
    <path id="Path_146" data-name="Path 146" d="M119.524,603.408h7.5l3.568-28.93h-11.07Z" transform="translate(662.598 -122.781)" fill="#a0616a"/>
    <path id="Path_147" data-name="Path 147" d="M364.216,750.263h14.771a9.413,9.413,0,0,1,9.413,9.413v.305H364.217Z" transform="translate(413.191 -272.085)" fill="#2f2e41"/>
    <path id="Path_148" data-name="Path 148" d="M50.524,603.408h7.5l3.568-28.93H50.523Z" transform="translate(689.385 -122.781)" fill="#a0616a"/>
    <path id="Path_149" data-name="Path 149" d="M295.216,750.263h14.771a9.413,9.413,0,0,1,9.413,9.413v.305H295.217Z" transform="translate(442.779 -272.085)" fill="#2f2e41"/>
    <path id="Path_150" data-name="Path 150" d="M303.426,671.173h-9.491a2.753,2.753,0,0,1-2.75-2.884l4.508-96.865.284-.008,45.835-1.195,8.969,96.921a2.753,2.753,0,0,1-2.521,3L337.6,671a2.754,2.754,0,0,1-2.916-2.191l-13.637-69a.889.889,0,0,0-.9-.734h0a.89.89,0,0,0-.9.741l-13.118,69.132A2.759,2.759,0,0,1,303.426,671.173Z" transform="translate(444.346 -202.19)" fill="#2f2e41"/>
    <circle id="Ellipse_9" data-name="Ellipse 9" cx="15.026" cy="15.026" r="15.026" transform="translate(750.131 252.966)" fill="#a0616a"/>
    <path id="Path_151" data-name="Path 151" d="M317.718,531.751c-7.162,0-14.518-1.883-20.616-7.448a2.785,2.785,0,0,1-.9-2.355c.653-5.865,3.819-36.145,2.036-56.372a24.483,24.483,0,0,1,7.926-20.376,24.225,24.225,0,0,1,20.778-6.016h0q.281.05.562.1a24.339,24.339,0,0,1,19.443,25.9c-1.38,18.146-2.617,42.69-.675,56.571a2.749,2.749,0,0,1-1.477,2.837C340.375,526.826,329.3,531.751,317.718,531.751Z" transform="translate(442.402 -151.045)" fill="#15ceff"/>
    <path id="Path_152" data-name="Path 152" d="M361.254,475.029a2.944,2.944,0,0,1-1.291-2.087l-1.831-14.677a8.184,8.184,0,0,1,15.756-4.434l6.03,13.558a2.947,2.947,0,0,1-1.9,4.036l-14.339,3.99A2.943,2.943,0,0,1,361.254,475.029Z" transform="translate(415.839 -154.545)" fill="#15ceff"/>
    <path id="Path_153" data-name="Path 153" d="M321.8,408.735a10.767,10.767,0,0,1-4.158-.752c-.582-.224-1.186-.409-1.767-.633-5.131-1.982-8.511-7.447-8.632-12.946a18.643,18.643,0,0,1,6.955-14.354,26.917,26.917,0,0,1,15.191-5.741c5.908-.45,12.56,1.048,15.861,5.968a5.182,5.182,0,0,1,.973,4.48,2.867,2.867,0,0,1-.808,1.241c-1.474,1.312-2.944.325-4.447.238a4.916,4.916,0,0,0-4.588,3.511,10.58,10.58,0,0,0,.165,6.113,15.273,15.273,0,0,1,.77,3.717,3.737,3.737,0,0,1-1.548,3.291c-1.291.78-2.986.329-4.278-.45a29.7,29.7,0,0,0-3.8-2.435c-1.4-.573-3.269-.446-4.082.825a4.513,4.513,0,0,0-.516,1.49c-.728,3.317-.561,3.121-1.289,6.438Z" transform="translate(438.111 -125.926)" fill="#2f2e41"/>
    <path id="Path_155" data-name="Path 155" d="M839.065,505.775l-83.239,46.69a10.412,10.412,0,0,1-14.159-3.983l-38.01-67.765a10.412,10.412,0,0,1,3.983-14.159l83.238-46.69a10.412,10.412,0,0,1,14.159,3.983l38.01,67.765A10.412,10.412,0,0,1,839.065,505.775Z" transform="translate(268.733 -143.197)" fill="#fff"/>
    <path id="Path_156" data-name="Path 156" d="M839.065,505.775l-83.239,46.69a10.412,10.412,0,0,1-14.159-3.983l-38.01-67.765a10.412,10.412,0,0,1,3.983-14.159l83.238-46.69a10.412,10.412,0,0,1,14.159,3.983l38.01,67.765A10.412,10.412,0,0,1,839.065,505.775ZM708.239,467.626a9.187,9.187,0,0,0-3.514,12.493l38.01,67.764a9.187,9.187,0,0,0,12.493,3.514l83.238-46.69a9.187,9.187,0,0,0,3.514-12.493L803.97,424.45a9.187,9.187,0,0,0-12.493-3.514Z" transform="translate(268.733 -143.197)" fill="#3f3d56"/>
    <path id="Path_411-2" data-name="Path 411" d="M822.032,460.627l-42.009,23.564a1.671,1.671,0,0,1-2.226-.5,1.609,1.609,0,0,1,.572-2.265l42.763-23.987c2.1.448,2.125,2.5.9,3.186Z" transform="translate(239.532 -158.269)" fill="#ccc"/>
    <path id="Path_412-2" data-name="Path 412" d="M828.788,472.672l-42.009,23.564a1.671,1.671,0,0,1-2.226-.5,1.609,1.609,0,0,1,.572-2.265l42.763-23.987c2.1.448,2.125,2.5.9,3.185Z" transform="translate(236.909 -162.951)" fill="#ccc"/>
    <path id="Path_413-2" data-name="Path 413" d="M762.122,516.642,749.3,523.834a1.812,1.812,0,0,1-2.464-.693l-8.487-15.129a1.812,1.812,0,0,1,.693-2.464l12.821-7.191a1.813,1.813,0,0,1,2.464.693l8.487,15.129a1.812,1.812,0,0,1-.693,2.464Z" transform="translate(259.017 -174.082)" fill="#ccc"/>
    <path id="Path_414-2" data-name="Path 414" d="M828.395,497.445l-64.114,35.963a1.671,1.671,0,0,1-2.226-.5,1.609,1.609,0,0,1,.572-2.265l64.868-36.386C829.6,494.707,829.62,496.757,828.395,497.445Z" transform="translate(245.643 -172.586)" fill="#ccc"/>
    <path id="Path_415-2" data-name="Path 415" d="M835.153,509.493l-64.114,35.963a1.671,1.671,0,0,1-2.226-.5,1.61,1.61,0,0,1,.572-2.265l64.868-36.386c2.1.448,2.125,2.5.9,3.186Z" transform="translate(243.02 -177.269)" fill="#ccc"/>
    <path id="Path_416-2" data-name="Path 416" d="M841.906,521.533,777.793,557.5a1.671,1.671,0,0,1-2.226-.5,1.609,1.609,0,0,1,.572-2.265l64.867-36.386c2.1.448,2.125,2.5.9,3.186Z" transform="translate(240.397 -181.95)" fill="#ccc"/>
    <path id="Path_417-2" data-name="Path 417" d="M848.664,533.58,784.55,569.543a1.671,1.671,0,0,1-2.226-.5,1.609,1.609,0,0,1,.572-2.265l64.868-36.386c2.1.448,2.125,2.5.9,3.186Z" transform="translate(237.774 -186.633)" fill="#ccc"/>
    <path id="Path_418-2" data-name="Path 418" d="M855.418,545.622,791.3,581.584a1.671,1.671,0,0,1-2.226-.5,1.609,1.609,0,0,1,.572-2.265l64.868-36.386c2.1.448,2.125,2.5.9,3.186Z" transform="translate(235.153 -191.314)" fill="#ccc"/>
    <path id="Path_157" data-name="Path 157" d="M870.525,574.7a5.784,5.784,0,0,0-3.842-7.993l-1.744-20.479-8.385,6.615,2.941,18.433a5.815,5.815,0,0,0,11.03,3.424Z" transform="translate(208.86 -192.783)" fill="#ffb8b8"/>
    <path id="Path_158" data-name="Path 158" d="M854.791,530.472l-6.964.831a2.588,2.588,0,0,1-2.892-2.458l-1.016-23.494-13.2-36.062a7.432,7.432,0,0,1,.392-7.077,9.708,9.708,0,0,1,1.106-1.427,7.409,7.409,0,0,1,6.462-2.294,7.725,7.725,0,0,1,5.8,4.031l8.609,18.04a51.245,51.245,0,0,1,4.952,24.21l-.971,23.24a2.587,2.587,0,0,1-2.245,2.456Z" transform="translate(219.168 -158.667)" fill="#15ceff"/>
    <path id="Path_159" data-name="Path 159" d="M650.143,593.861l-6.457,2.834-14-23.556,9.529-4.183Z" transform="translate(448.547 -120.637)" fill="#ffb8b8"/>
    <path id="Path_160" data-name="Path 160" d="M904.368,745.9l-20.819,9.138-.115-.263a8.849,8.849,0,0,1,4.546-11.66h0l12.716-5.581Z" transform="translate(198.715 -267.144)" fill="#2f2e41"/>
    <path id="Path_161" data-name="Path 161" d="M514.834,605.218h-7.051l-3.354-27.2h10.407Z" transform="translate(501.43 -124.156)" fill="#ffb8b8"/>
    <path id="Path_162" data-name="Path 162" d="M757.767,760.351H735.031v-.288a8.849,8.849,0,0,1,8.85-8.849h13.887Z" transform="translate(260.354 -272.454)" fill="#2f2e41"/>
    <path id="Path_163" data-name="Path 163" d="M828.805,652.4l-39.28-87.659a.863.863,0,0,0-1.625.115l-23.934,84.667a2.573,2.573,0,0,1-2.755,1.9l-13.071-1.307a2.6,2.6,0,0,1-2.324-2.785c4.158-51.71,10.712-100.515,30.346-132.464l.1-.17,29.7,5.824,39.649,126.257a2.6,2.6,0,0,1-1.683,3.221l-11.956,3.843a2.579,2.579,0,0,1-3.169-1.439Z" transform="translate(251.854 -180.633)" fill="#2f2e41"/>
    <circle id="Ellipse_10" data-name="Ellipse 10" cx="14.127" cy="14.127" r="14.127" transform="translate(1031.023 261.243)" fill="#ffb8b8"/>
    <path id="Path_164" data-name="Path 164" d="M791.37,491.778l-.18-.037-.042-.179a61.45,61.45,0,0,1-.135-26.065,20.475,20.475,0,0,1,20.5-16.564h0a20.509,20.509,0,0,1,20.078,19.718c.606,15.926-5.9,29.733-5.969,29.871l-.1.2Z" transform="translate(234.819 -154.968)" fill="#15ceff"/>
    <path id="Path_165" data-name="Path 165" d="M726.285,547.933a5.784,5.784,0,0,0,4.638-7.559l16.271-12.557-10.1-3.466-13.9,12.456a5.815,5.815,0,0,0,3.1,11.126Z" transform="translate(266.585 -184.276)" fill="#ffb8b8"/>
    <path id="Path_166" data-name="Path 166" d="M739.756,510.956a2.579,2.579,0,0,1-3.3-.583l-4.47-5.4a2.588,2.588,0,0,1,.5-3.763l19.2-13.578L774.847,457a7.432,7.432,0,0,1,6.162-3.5,9.7,9.7,0,0,1,1.8.157h0a7.406,7.406,0,0,1,5.429,4.19,7.724,7.724,0,0,1-.247,7.06l-17.153,27.779-.038.061Z" transform="translate(260.773 -156.747)" fill="#15ceff"/>
    <path id="Path_167" data-name="Path 167" d="M810.845,401.821c-1.041-1.713-3.339-2.2-5.334-2s-3.935.9-5.939.881c-5.565-.043-9.861-6.826-7.521-11.876,1.919-4.141,6.712-5.96,11.047-7.387,9.09-2.992,19.531-5.868,27.78-1.016a17.261,17.261,0,0,1,8.308,15.38c-.185,3.819-1.648,7.741-.411,11.358,1.427,4.173,5.951,6.413,10.226,7.5,7.495,1.9,15.4,1.593,22.938,3.3s15.27,6.225,17.3,13.684c1.335,4.9-.058,10.174-2.366,14.7a38.067,38.067,0,0,1-53.106,15.577c-9.117-5.324-15.7-14.321-19.624-24.123a80.779,80.779,0,0,1-4.669-17.742,39.463,39.463,0,0,1,1.459-16.955A1.558,1.558,0,0,0,810.845,401.821Z" transform="translate(234.153 -127.336)" fill="#2f2e41"/>
  </g>
</svg>
