<svg xmlns="http://www.w3.org/2000/svg" width="131" height="131" viewBox="0 0 131 131">
  <g id="Java-icon" transform="translate(-18721 -1863)">
    <rect id="Rectangle_113" data-name="Rectangle 113" width="131" height="131" transform="translate(18721 1863)" fill="#fff" opacity="0"/>
    <g id="java-seeklogo.com" transform="translate(18753 1883)">
      <path id="Path_48" data-name="Path 48" d="M70.337,267.473s-3.487,2.028,2.481,2.714c7.23.825,10.926.707,18.893-.8a32.876,32.876,0,0,0,5.02,2.451c-17.862,7.655-40.425-.444-26.4-4.363" transform="translate(-48.665 -196.91)" fill="#5382a1"/>
      <path id="Path_49" data-name="Path 49" d="M60.614,229.659s-3.911,2.895,2.062,3.513A73.706,73.706,0,0,0,87.054,232a10.821,10.821,0,0,0,3.755,2.289c-21.6,6.315-45.65.5-30.195-4.632" transform="translate(-41.124 -169.086)" fill="#5382a1"/>
      <path id="Path_50" data-name="Path 50" d="M132.7,95.906c4.4,5.067-1.156,9.627-1.156,9.627s11.175-5.769,6.043-12.993c-4.793-6.737-8.469-10.084,11.431-21.625,0,0-31.236,7.8-16.317,24.992" transform="translate(-94.808 -52.278)" fill="#e76f00"/>
      <path id="Path_51" data-name="Path 51" d="M62.031,293.292s2.58,2.126-2.842,3.771c-10.31,3.123-42.911,4.067-51.968.124-3.256-1.416,2.85-3.382,4.77-3.794a12.376,12.376,0,0,1,3.147-.353c-3.621-2.551-23.4,5.008-10.048,7.172,36.418,5.906,66.387-2.659,56.94-6.92" transform="translate(-0.517 -215.341)" fill="#5382a1"/>
      <path id="Path_52" data-name="Path 52" d="M44.276,190.439s-16.583,3.939-5.873,5.369c4.522.606,13.537.469,21.935-.235,6.863-.579,13.754-1.81,13.754-1.81a29.115,29.115,0,0,0-4.171,2.232c-16.84,4.429-49.372,2.369-40.006-2.162a31.378,31.378,0,0,1,14.36-3.394" transform="translate(-20.926 -140.216)" fill="#5382a1"/>
      <path id="Path_53" data-name="Path 53" d="M200.548,204.653c17.119-8.9,9.2-17.444,3.679-16.292a12.8,12.8,0,0,0-1.958.526,3.119,3.119,0,0,1,1.463-1.128c10.929-3.843,19.335,11.333-3.528,17.343a1.484,1.484,0,0,0,.344-.448" transform="translate(-147.451 -137.802)" fill="#5382a1"/>
      <path id="Path_54" data-name="Path 54" d="M103.693.371s9.481,9.484-8.992,24.067c-14.813,11.7-3.378,18.368-.006,25.989C86.048,42.626,79.7,35.759,83.96,29.367c6.248-9.382,23.558-13.931,19.733-29" transform="translate(-60.916 -0.371)" fill="#e76f00"/>
      <path id="Path_55" data-name="Path 55" d="M59.339,321.384c16.432,1.052,41.664-.584,42.262-8.358,0,0-1.149,2.947-13.58,5.288a135.1,135.1,0,0,1-41.582.64s2.1,1.738,12.9,2.431" transform="translate(-34.307 -230.429)" fill="#5382a1"/>
    </g>
  </g>
</svg>
