<svg xmlns="http://www.w3.org/2000/svg" width="131" height="131" viewBox="0 0 131 131">
  <g id="Laravel-icon" transform="translate(-18963 -1846)">
    <rect id="Rectangle_116" data-name="Rectangle 116" width="131" height="131" transform="translate(18963 1846)" fill="#fff" opacity="0"/>
    <path id="Laravel" d="M76.8,17.9a1.252,1.252,0,0,1,.043.323V35.2a1.238,1.238,0,0,1-.622,1.074L61.971,44.48V60.744a1.241,1.241,0,0,1-.619,1.074L31.6,78.944a1.33,1.33,0,0,1-.217.09c-.028.009-.054.026-.084.034a1.246,1.246,0,0,1-.635,0c-.034-.009-.065-.028-.1-.04a1.288,1.288,0,0,1-.2-.084L.622,61.818A1.24,1.24,0,0,1,0,60.744V9.8a1.266,1.266,0,0,1,.043-.325c.009-.036.031-.068.043-.1a1.22,1.22,0,0,1,.079-.192,1.158,1.158,0,0,1,.085-.11,1.261,1.261,0,0,1,.11-.144,1.209,1.209,0,0,1,.122-.093,1.009,1.009,0,0,1,.136-.107h0L15.493.166a1.241,1.241,0,0,1,1.238,0L31.6,8.728h0a1.517,1.517,0,0,1,.136.105,1.464,1.464,0,0,1,.121.093,1.449,1.449,0,0,1,.111.145,1.142,1.142,0,0,1,.084.11,1.292,1.292,0,0,1,.08.192c.012.036.034.068.043.105a1.252,1.252,0,0,1,.043.323V41.62l12.393-7.136V18.218a1.251,1.251,0,0,1,.043-.322c.011-.037.031-.07.043-.105a1.4,1.4,0,0,1,.08-.192c.023-.04.057-.073.084-.11a1.273,1.273,0,0,1,.111-.144,1.189,1.189,0,0,1,.121-.093,1.25,1.25,0,0,1,.136-.107h0L60.114,8.583a1.24,1.24,0,0,1,1.238,0l14.873,8.563a1.368,1.368,0,0,1,.139.105c.039.031.084.059.119.093a1.447,1.447,0,0,1,.111.145.934.934,0,0,1,.084.11,1.226,1.226,0,0,1,.08.192.885.885,0,0,1,.043.105ZM74.366,34.484V20.363l-5.2,3-7.19,4.14V41.62l12.4-7.136ZM59.494,60.027V45.9l-7.073,4.039-20.2,11.527V75.726l27.269-15.7ZM2.479,11.946V60.027l27.266,15.7V61.465L15.5,53.4l0,0-.006,0a58.849,58.849,0,0,0-.251-.192l0,0a1.179,1.179,0,0,1-.1-.13,1.322,1.322,0,0,1-.093-.121l0,0a.987.987,0,0,1-.065-.155.916.916,0,0,1-.059-.139v0a1.185,1.185,0,0,1-.025-.181,1.074,1.074,0,0,1-.019-.139V19.082L7.684,14.941l-5.2-2.993ZM16.114,2.67,3.722,9.8l12.389,7.133L28.5,9.8,16.111,2.67Zm6.444,44.516,7.189-4.138v-31.1l-5.2,3-7.19,4.14v31.1l5.206-3Zm38.175-36.1L48.343,18.22l12.39,7.133,12.389-7.135L60.733,11.087ZM59.494,27.5,52.3,23.36l-5.2-3v14.12l7.189,4.138,5.206,3V27.5ZM30.983,59.32,49.157,48.945l9.085-5.185L45.861,36.632,31.605,44.839l-12.992,7.48,12.37,7Z" transform="translate(18990 1872)" fill="#ff2d20" fill-rule="evenodd"/>
  </g>
</svg>
