<svg xmlns="http://www.w3.org/2000/svg" width="131" height="131" viewBox="0 0 131 131">
  <g id="Oracle-icon" transform="translate(-18963 -2072)">
    <rect id="Rectangle_117" data-name="Rectangle 117" width="131" height="131" transform="translate(18963 2072)" fill="#fff" opacity="0"/>
    <path id="oracle-logo" d="M62.077,16.816h7.6l-4.02-6.468L58.281,22.042H54.923L63.9,8a2.121,2.121,0,0,1,1.762-.91,2.081,2.081,0,0,1,1.726.887L76.4,22.042H73.038l-1.584-2.613h-7.7Zm34.881,2.613V7.227H94.108v13.4a1.4,1.4,0,0,0,.414.993,1.456,1.456,0,0,0,1.04.426h12.995l1.679-2.613ZM49.815,17.242a5.008,5.008,0,1,0,0-10.015H37.349V22.042H40.2V9.84h9.429a2.4,2.4,0,0,1,0,4.8l-8.033-.012L50.1,22.042h4.138l-5.723-4.8Zm-30,4.8a7.408,7.408,0,1,1,0-14.815h8.611a7.408,7.408,0,0,1,0,14.815Zm8.42-2.613a4.795,4.795,0,1,0,0-9.589H20a4.795,4.795,0,1,0,0,9.589Zm54.11,2.613a7.408,7.408,0,1,1,0-14.815H92.571L90.9,9.84H82.532a4.795,4.795,0,1,0,0,9.589H92.807l-1.679,2.613Zm34.845-2.613a4.789,4.789,0,0,1-4.611-3.488h12.179l1.679-2.613H112.578a4.8,4.8,0,0,1,4.611-3.488h8.36l1.691-2.613H117a7.408,7.408,0,1,0,0,14.816h8.785l1.679-2.613ZM128.765,8.8a1.307,1.307,0,1,1,1.3,1.313A1.3,1.3,0,0,1,128.765,8.8Zm1.3,1.679a1.667,1.667,0,1,0-1.655-1.667A1.665,1.665,0,0,0,130.065,10.478Zm-.154-2.66a1.2,1.2,0,0,1,.485.059.521.521,0,0,1,.367.52.47.47,0,0,1-.024.154.479.479,0,0,1-.225.319c-.024.012-.036.024-.083.047l.426.769h-.414l-.378-.71h-.26v.71h-.367V7.818Zm.13.851c.118-.012.236-.012.307-.118a.25.25,0,0,0,.048-.166.265.265,0,0,0-.142-.225.852.852,0,0,0-.343-.036h-.106v.544Z" transform="translate(18956.596 2122.915)" fill="#f80000"/>
  </g>
</svg>
