<svg xmlns="http://www.w3.org/2000/svg" xmlns:xlink="http://www.w3.org/1999/xlink" width="131" height="131" viewBox="0 0 131 131">
  <defs>
    <linearGradient id="linear-gradient" x1="0.13" y1="0.12" x2="0.796" y2="0.782" gradientUnits="objectBoundingBox">
      <stop offset="0" stop-color="#387eb8"/>
      <stop offset="1" stop-color="#366994"/>
    </linearGradient>
    <linearGradient id="linear-gradient-2" x1="0.191" y1="0.206" x2="0.907" y2="0.884" gradientUnits="objectBoundingBox">
      <stop offset="0" stop-color="#ffe052"/>
      <stop offset="1" stop-color="#ffc331"/>
    </linearGradient>
  </defs>
  <g id="Python-icon" transform="translate(-18479 -1863)">
    <rect id="Rectangle_110" data-name="Rectangle 110" width="131" height="131" transform="translate(18479 1863)" fill="#fff" opacity="0"/>
    <g id="python-seeklogo.com" transform="translate(18500 1885)">
      <path id="Path_46" data-name="Path 46" d="M43.864.072c-22.359,0-20.962,9.7-20.962,9.7l.025,10.045H44.263v3.016H14.452S.145,21.207.145,43.767s12.488,21.76,12.488,21.76h7.453V55.058s-.4-12.488,12.288-12.488H53.535s11.889.192,11.889-11.491V11.762S67.23.072,43.864.072ZM32.1,6.827a3.839,3.839,0,1,1-3.839,3.839A3.835,3.835,0,0,1,32.1,6.827Z" transform="translate(-0.145 -0.072)" fill="url(#linear-gradient)"/>
      <path id="Path_47" data-name="Path 47" d="M87.738,129.778c22.358,0,20.962-9.7,20.962-9.7l-.025-10.045H87.339v-3.016H117.15s14.307,1.623,14.307-20.938-12.488-21.76-12.488-21.76h-7.453V74.793s.4,12.488-12.288,12.488H78.067s-11.889-.192-11.889,11.491v19.317s-1.805,11.69,21.561,11.69ZM99.5,123.024a3.839,3.839,0,1,1,3.839-3.839,3.835,3.835,0,0,1-3.839,3.839Z" transform="translate(-43.384 -42.163)" fill="url(#linear-gradient-2)"/>
    </g>
  </g>
</svg>
