<svg xmlns="http://www.w3.org/2000/svg" width="131" height="131" viewBox="0 0 131 131">
  <g id="Webflow-icon" transform="translate(-18721 -2315)">
    <rect id="Rectangle_115" data-name="Rectangle 115" width="131" height="131" transform="translate(18721 2315)" fill="#fff" opacity="0"/>
    <g id="webflow" transform="translate(18737 2368.212)">
      <path id="Path_72" data-name="Path 72" d="M31.808,9.689c0-1.767-1.718-3.644-4.692-3.644-3.339,0-7.007,2.45-7.568,7.336-.573,4.936,2.5,7.129,5.594,7.129A8.233,8.233,0,0,0,31.515,17.7a2.819,2.819,0,0,0-3.62-.78,3.706,3.706,0,0,1-1.913.463c-1.194,0-2.413-.536-2.413-2.766,7.654-.756,8.238-3.156,8.238-4.923Zm-3.79.292c-.049.548-.268,1.487-4.143,2.011.817-2.9,2.376-3.12,3.1-3.12a1.012,1.012,0,0,1,1.048,1.109Zm-12.967.475s-1.645,5.167-1.779,5.594c-.049-.439-1.255-9.713-1.255-9.713-2.8,0-4.3,2-5.094,4.107,0,0-2,5.179-2.169,5.618-.012-.4-.3-5.557-.3-5.557A4.579,4.579,0,0,0,0,6.349L2.315,20.4c2.937-.012,4.521-2,5.35-4.107,0,0,1.767-4.57,1.84-4.777.012.195,1.268,8.884,1.268,8.884,2.949,0,4.534-1.865,5.387-3.9L20.291,6.349c-2.913,0-4.448,1.986-5.24,4.107ZM42.63,6.02a5.582,5.582,0,0,0-4.375,2.437V8.446L39.3,0C36.89,0,34.928,2.1,34.55,5.216L32.722,20.291a4.6,4.6,0,0,0,3.656-1.426,4.048,4.048,0,0,0,3.339,1.645c4.071,0,6.861-4.729,6.861-9.165C46.554,7.3,44.592,6.02,42.63,6.02Zm-.378,7.251c-.427,2.474-1.8,4.156-3.132,4.156a2.7,2.7,0,0,1-1.913-.6,17.32,17.32,0,0,1,.9-4.643c.488-1.146,1.645-2.974,2.852-2.974,1.182,0,1.718,1.572,1.292,4.058Zm14.49-6.923H53.9l.012-.146C54.11,4.35,54.549,3.376,56,3.217a1.521,1.521,0,0,0,1.536-1.17c.085-.439.353-1.962.353-1.962-5.7-.037-7.495,2.425-7.958,6.179l-.012.085h-.061a2.582,2.582,0,0,0-2.12,2.376l-.061.488h1.9L47.98,22.4l-.488,2.364c.061,0,.134.012.195.012,2.669-.1,4.375-2.206,4.753-5.265l1.243-10.3h.89a2.436,2.436,0,0,0,2.084-2.34l.085-.524Zm14.771-.244a7.794,7.794,0,0,0-7.325,6.2c-.95,3.79.488,8.275,5.314,8.275s7.593-4.668,7.593-8.555c0-3.863-2.62-5.923-5.582-5.923Zm1.328,7.044c-.171,1.718-.926,4.326-3,4.326s-1.792-3.047-1.584-4.5c.219-1.548,1.085-3.754,2.949-3.754,1.669,0,1.828,1.986,1.633,3.924Zm20.45-2.693s-1.645,5.167-1.779,5.594c-.049-.439-1.255-9.713-1.255-9.713-2.8,0-4.3,2-5.094,4.107,0,0-2,5.179-2.169,5.618-.012-.4-.3-5.557-.3-5.557A4.579,4.579,0,0,0,78.24,6.349l2.3,14.051c2.937-.012,4.521-2,5.35-4.107,0,0,1.767-4.57,1.828-4.777.012.195,1.267,8.884,1.267,8.884,2.949,0,4.534-1.865,5.387-3.9L98.507,6.349c-2.9,0-4.436,1.986-5.216,4.107ZM59.424.085,57.035,19.353l-.487,2.376c.061,0,.134.012.195.012,2.571-.037,4.4-2.291,4.741-5.131L62.86,5.557c.414-3.376-1.6-5.472-3.437-5.472Z" transform="translate(0 0.165)" fill="#4353ff"/>
      <rect id="Rectangle_44" data-name="Rectangle 44" width="98" height="25" transform="translate(0.185 -0.212)" fill="rgba(0,0,0,0)"/>
    </g>
  </g>
</svg>
